<svg xmlns="http://www.w3.org/2000/svg" viewBox="0 0 541.9 100.07"><defs><style>.cls-1{fill:#6246ea;}.cls-2{fill:#c3c0ed;}.cls-3{fill:#9d93e5;}</style></defs><g id="Layer_2" data-name="Layer 2"><g id="Layer_1-2" data-name="Layer 1"><path class="cls-1" d="M120.9,50c0-14.6,11.3-25,27.1-25,10.2,0,18.2,4.4,21.8,12.4l-10.9,5.9c-2.6-4.6-6.5-6.7-10.9-6.7-7.1,0-12.7,5-12.7,13.4s5.6,13.4,12.7,13.4c4.4,0,8.3-2,10.9-6.7l10.9,6C166.3,70.53,158.2,75,148,75c-15.8,0-27.1-10.4-27.1-25m92,0c0-8.4-5.3-13.4-12.4-13.4S188,41.73,188,50s5.4,13.4,12.5,13.4,12.4-5,12.4-13.4m-39.1,0c0-14.6,11.3-25,26.7-25s26.6,10.4,26.6,25-11.2,25-26.6,25-26.7-10.4-26.7-25M375.9,25c-7.3,0-13.6,3-17.5,7.9-3.4-5.3-9.2-7.9-16-7.9-6.2,0-11.6,2.2-15.3,6.3v-5.6H313.9c4.8,4.8,7.5,11.9,7.5,20.8v27.8h6.3V49.93c0-8.7,4.4-12.7,10.6-12.7,5.9,0,9.2,3.6,9.2,11.5v25.6h14.1V49.93c0-8.7,4.4-12.7,10.7-12.7,5.7,0,9.2,3.6,9.2,11.5v25.6h14.1V46.53c.2-14.8-8.2-21.5-19.7-21.5m-60.5,21.5v27.8H301.3V48.73c0-7.9-3.5-11.5-9.2-11.5-6.3,0-10.7,4.1-10.7,12.7v24.4H267.3V48.73c0-7.9-3.3-11.5-9.2-11.5-6.2,0-10.6,4.1-10.6,12.7v24.4H233.4V25.73h13.4v5.6c3.6-4.2,9-6.3,15.3-6.3,6.8,0,12.5,2.6,16,7.9,3.9-5,10.2-7.9,17.5-7.9,11.4,0,19.8,6.7,19.8,21.5m86.7,23.2,4.7-10.1a33.07,33.07,0,0,0,16.9,4.7c6.5,0,8.9-1.7,8.9-4.4,0-7.9-29.3.2-29.3-19.2,0-9.2,8.3-15.7,22.5-15.7,6.7,0,14.1,1.5,18.7,4.2l-4.7,10a28.08,28.08,0,0,0-14-3.6c-6.3,0-9,2-9,4.5,0,8.3,29.3.3,29.3,19.4,0,9-8.4,15.4-22.9,15.4-8.2.1-16.5-2.2-21.1-5.2M491.3,50c0-8.4-5.3-13.4-12.4-13.4s-12.5,5.1-12.5,13.4,5.4,13.4,12.5,13.4,12.4-5,12.4-13.4m-39,0c0-14.6,11.3-25,26.7-25s26.6,10.4,26.6,25S494.4,75,479,75s-26.7-10.4-26.7-25m89.6-25V38c-1.2-.1-2.1-.2-3.2-.2-7.8,0-12.9,4.2-12.9,13.5v22.9H511.7V25.63h13.4V32c3.5-4.6,9.3-7,16.8-7"/><path class="cls-1" d="M59.9,67.33a20,20,0,0,1-27.8-8.2,20.24,20.24,0,0,1,7.7-26.4,19.45,19.45,0,0,1,12.8-2.5L59,6.53A5,5,0,0,0,54.6.23a49.22,49.22,0,0,0-31.3,7.5,50,50,0,1,0,72.2,63.1,5,5,0,0,0-3.2-6.9l-23.7-6.4A21.15,21.15,0,0,1,59.9,67.33Z"/><path class="cls-2" d="M68.4,42.43l23.7-6.3a5.06,5.06,0,0,0,3.3-6.9A42.32,42.32,0,0,0,93.2,25c-.8-1.4-1.6-2.7-2.5-4a5,5,0,0,0-7.6-.6L65.8,37.73A11.35,11.35,0,0,1,67.3,40,25.57,25.57,0,0,1,68.4,42.43Z"/><path class="cls-3" d="M99.7,54.73a48.16,48.16,0,0,0,0-9.3A5,5,0,0,0,93.4,41l-23.7,6.3a19.53,19.53,0,0,1,0,5.4L93.4,59A5,5,0,0,0,99.7,54.73Z"/><path class="cls-3" d="M63.8,7.83l-6.3,23.7a19.83,19.83,0,0,1,4.7,2.7l17.3-17.3a4.93,4.93,0,0,0-.7-7.6,55,55,0,0,0-8.1-4.7A4.9,4.9,0,0,0,63.8,7.83Z"/></g></g></svg>