<?xml version="1.0" encoding="UTF-8"?>
<svg width="245px" height="61px" viewBox="0 0 245 61" version="1.1" xmlns="http://www.w3.org/2000/svg" xmlns:xlink="http://www.w3.org/1999/xlink">
    <!-- Generator: Sketch 54.1 (76490) - https://sketchapp.com -->
    <title>Group 2 Copy 7</title>
    <desc>Created with Sketch.</desc>
    <defs>
        <path d="M60.8462928,36.9509445 C68.3496666,50.2328711 62.0698506,61 46.8064718,61 L17.1952608,61 C1.93790797,61 -4.34558108,50.2287062 3.15543978,36.9509445 L18.4148062,9.93992383 C25.91818,-3.34200274 38.0859055,-3.33783779 45.5869263,9.93992383 L60.8462928,36.9509445 Z M47.8148004,39.7773834 L36.8224792,20.380534 C34.1359515,15.6399361 29.7793208,15.6393245 27.0924465,20.380534 L16.1001253,39.7773834 C13.4135976,44.5179813 15.6560219,48.3621026 21.1094943,48.3621026 L42.8054314,48.3621026 C48.2641431,48.3621026 50.5016747,44.5185929 47.8148004,39.7773834 Z" id="path-1"></path>
    </defs>
    <g id="New" stroke="none" stroke-width="1" fill="none" fill-rule="evenodd">
        <g id="Group-2-Copy-7" transform="translate(-5.000000, 0.000000)">
            <path d="M96.108,30 L96.108,4.8 L106.482,4.8 C109.464,4.8 111.816,5.556 113.538,7.068 C115.26,8.58 116.142,10.638 116.142,13.242 C116.142,15.972 115.26,18.072 113.496,19.584 C111.732,21.096 109.38,21.852 106.398,21.852 L100.266,21.852 L100.266,30 L96.108,30 Z M111.858,13.284 L111.9,13.2 C111.9,11.646 111.396,10.47 110.388,9.672 C109.38,8.874 108.036,8.454 106.314,8.454 L100.308,8.454 L100.308,18.156 L106.356,18.156 C108.078,18.156 109.422,17.736 110.388,16.938 C111.354,16.14 111.858,14.922 111.858,13.284 Z M124.342,4.8 L134.716,4.8 C137.698,4.8 140.05,5.556 141.772,7.068 C143.494,8.58 144.376,10.638 144.376,13.242 C144.376,15.132 143.914,16.728 142.948,18.072 C141.982,19.416 140.68,20.382 139.042,21.012 L139.042,21.222 L145.09,29.412 L145.09,30 L140.512,30 L134.506,21.684 L128.5,21.684 L128.5,30 L124.342,30 L124.342,4.8 Z M140.05,13.284 L139.966,13.284 C139.966,11.73 139.462,10.554 138.496,9.756 C137.53,8.958 136.186,8.538 134.464,8.538 L128.458,8.538 L128.458,18.03 L134.716,18.03 C136.312,18.03 137.614,17.61 138.58,16.812 C139.546,16.014 140.05,14.838 140.05,13.284 Z M157.658,4.8 L157.658,30 L153.5,30 L153.5,4.8 L157.658,4.8 Z M166.278,27.438 L168.42,24.246 C168.63,24.414 168.966,24.624 169.386,24.918 C169.806,25.212 170.646,25.59 171.906,26.052 C173.166,26.514 174.426,26.724 175.644,26.724 C177.282,26.724 178.5,26.388 179.298,25.758 C180.096,25.128 180.516,24.288 180.516,23.238 C180.516,22.272 180.138,21.474 179.34,20.886 C178.542,20.298 177.03,19.668 174.804,18.996 C171.864,18.114 169.722,17.106 168.42,15.972 C167.118,14.838 166.446,13.326 166.446,11.436 C166.446,9.21 167.244,7.446 168.84,6.144 C170.436,4.842 172.704,4.212 175.644,4.212 C177.492,4.212 179.172,4.422 180.642,4.842 C182.112,5.262 183.12,5.682 183.666,6.102 L184.464,6.732 L182.196,10.134 C182.028,9.966 181.776,9.756 181.44,9.546 C181.104,9.336 180.39,9.042 179.256,8.664 C178.122,8.286 176.946,8.076 175.728,8.076 C174.258,8.076 173.124,8.328 172.284,8.874 C171.444,9.42 171.024,10.176 171.024,11.184 C171.024,12.024 171.402,12.696 172.2,13.242 C172.998,13.788 174.468,14.376 176.61,15.006 C179.676,15.888 181.86,16.938 183.162,18.156 C184.464,19.374 185.136,20.97 185.136,22.944 C185.136,25.17 184.338,27.018 182.742,28.446 C181.146,29.874 178.836,30.588 175.812,30.588 C174.594,30.588 173.46,30.462 172.368,30.252 C171.276,30.042 170.394,29.79 169.68,29.454 C168.966,29.118 168.336,28.782 167.79,28.488 C167.244,28.194 166.866,27.942 166.656,27.732 L166.278,27.438 Z M213.832,30 L213.832,12.444 L206.566,21.936 L205.054,21.936 L197.83,12.57 L197.83,30 L193.672,30 L193.672,4.8 L196.864,4.8 L205.81,16.56 L214.798,4.8 L217.906,4.8 L217.948,30 L213.832,30 Z M239.672,4.8 L250.004,30 L245.636,30 L243.578,24.834 L231.566,24.834 L229.55,30 L225.14,30 L235.472,4.8 L239.672,4.8 Z M237.572,9.63 L232.952,21.306 L242.192,21.306 L237.572,9.63 Z" id="PRISMA" fill="#333333" fill-rule="nonzero"></path>
            <path d="M107.104,56 L96.072,56 L96.072,39.2 L98.844,39.2 L98.844,53.536 L107.104,53.536 L107.104,56 Z M119.576,39.2 L126.464,56 L123.552,56 L122.18,52.556 L114.172,52.556 L112.828,56 L109.888,56 L116.776,39.2 L119.576,39.2 Z M118.176,42.42 L115.096,50.204 L121.256,50.204 L118.176,42.42 Z M144.256,51.212 L144.2,51.268 C144.2,52.808 143.668,53.984 142.604,54.796 C141.54,55.608 140.056,56.028 138.18,56.028 L130.564,56.028 L130.564,39.228 L137.928,39.228 C139.804,39.228 141.232,39.62 142.24,40.404 C143.248,41.188 143.752,42.308 143.752,43.792 C143.752,44.604 143.556,45.332 143.136,45.948 C142.716,46.564 142.156,47.04 141.428,47.348 L141.428,47.46 C142.296,47.712 142.996,48.16 143.5,48.804 C144.004,49.448 144.256,50.26 144.256,51.212 Z M138.432,48.72 L133.28,48.776 L133.28,53.648 L138.18,53.648 C139.076,53.648 139.804,53.424 140.392,52.976 C140.98,52.528 141.26,51.912 141.26,51.156 C141.26,50.456 140.98,49.896 140.448,49.448 C139.916,49 139.244,48.748 138.432,48.72 Z M140.756,44.156 L140.728,44.128 C140.728,43.344 140.476,42.756 139.972,42.364 C139.468,41.972 138.768,41.776 137.844,41.776 L133.28,41.776 L133.28,46.48 L137.788,46.48 C138.684,46.48 139.412,46.256 139.944,45.836 C140.476,45.416 140.756,44.856 140.756,44.156 Z M148.356,54.292 L149.784,52.164 C149.924,52.276 150.148,52.416 150.428,52.612 C150.708,52.808 151.268,53.06 152.108,53.368 C152.948,53.676 153.788,53.816 154.6,53.816 C155.692,53.816 156.504,53.592 157.036,53.172 C157.568,52.752 157.848,52.192 157.848,51.492 C157.848,50.848 157.596,50.316 157.064,49.924 C156.532,49.532 155.524,49.112 154.04,48.664 C152.08,48.076 150.652,47.404 149.784,46.648 C148.916,45.892 148.468,44.884 148.468,43.624 C148.468,42.14 149,40.964 150.064,40.096 C151.128,39.228 152.64,38.808 154.6,38.808 C155.832,38.808 156.952,38.948 157.932,39.228 C158.912,39.508 159.584,39.788 159.948,40.068 L160.48,40.488 L158.968,42.756 C158.856,42.644 158.688,42.504 158.464,42.364 C158.24,42.224 157.764,42.028 157.008,41.776 C156.252,41.524 155.468,41.384 154.656,41.384 C153.676,41.384 152.92,41.552 152.36,41.916 C151.8,42.28 151.52,42.784 151.52,43.456 C151.52,44.016 151.772,44.464 152.304,44.828 C152.836,45.192 153.816,45.584 155.244,46.004 C157.288,46.592 158.744,47.292 159.612,48.104 C160.48,48.916 160.928,49.98 160.928,51.296 C160.928,52.78 160.396,54.012 159.332,54.964 C158.268,55.916 156.728,56.392 154.712,56.392 C153.9,56.392 153.144,56.308 152.416,56.168 C151.688,56.028 151.1,55.86 150.624,55.636 C150.148,55.412 149.728,55.188 149.364,54.992 C149,54.796 148.748,54.628 148.608,54.488 L148.356,54.292 Z" id="LABS" fill="#999999" fill-rule="nonzero"></path>
            <g id="Group-3" transform="translate(5.000000, 0.000000)">
                <mask id="mask-2" fill="white">
                    <use xlink:href="#path-1"></use>
                </mask>
                <use id="Mask" fill="#333333" fill-rule="nonzero" xlink:href="#path-1"></use>
            </g>
        </g>
    </g>
</svg>