<svg xmlns="http://www.w3.org/2000/svg" xmlns:xlink="http://www.w3.org/1999/xlink" version="1.1" id="Isolation_Mode" x="0px" y="0px" viewBox="0 0 196.3 50.6" style="enable-background:new 0 0 196.3 50.6;" xml:space="preserve"><style type="text/css">
	.st0{fill:#009B00;}
	.st1{fill:#FFFFFF;}
</style><g><g><path id="XMLID_751_" d="M64.8,25.1h9.4c-0.2,0.9-0.6,1.7-1,2.5c-0.5,1-1.2,1.8-2.1,2.5c-0.9,0.7-1.9,1.3-3.1,1.8    c-1.2,0.4-2.6,0.7-4.1,0.7c-1.5,0-2.9-0.3-4.1-0.8c-1.3-0.6-2.4-1.4-3.3-2.4c-0.9-1.1-1.7-2.4-2.2-4c-0.5-1.6-0.8-3.4-0.8-5.5    c0-2,0.3-3.8,0.9-5.4c0.6-1.6,1.3-2.9,2.3-4c1-1.1,2.1-1.9,3.4-2.4c1.3-0.5,2.6-0.8,4.1-0.8c2.2,0,4,0.5,5.5,1.5    c1.3,0.9,2.2,1.9,2.8,3.1c0.1,0.1,0.2,0.4,0.3,0.6c0.1,0.2,0.2,0.3,0.4,0.3h7.7c0.3,0,0.5-0.3,0.4-0.6c-0.1-0.2-0.1-0.4-0.1-0.5    c-0.5-1.6-1.2-3.1-2.1-4.4c-1-1.5-2.2-2.8-3.6-3.9c-1.4-1.1-3.1-1.9-5-2.5C68.4,0.3,66.3,0,64,0c-2.7,0-5.2,0.5-7.5,1.5    c-2.3,1-4.3,2.4-6,4.2c-1.7,1.8-3,3.9-3.9,6.3c-0.9,2.4-1.4,5-1.4,7.8c0,2.8,0.5,5.4,1.4,7.8c0.9,2.4,2.3,4.5,3.9,6.3    c1.6,1.8,3.6,3.2,5.9,4.2c2.3,1,4.7,1.5,7.3,1.5c2.7,0,5.1-0.6,7.1-1.6c1.5-0.8,2.7-2.2,3.6-3.3v3.8c0,0.2,0.2,0.4,0.4,0.4h6.6    c0.2,0,0.4-0.2,0.4-0.4V18.4c0-0.2-0.2-0.4-0.4-0.4H64.8c-0.2,0-0.4,0.2-0.4,0.4v6.3C64.4,24.9,64.5,25.1,64.8,25.1z"/><path id="XMLID_750_" d="M85.3,39.3h6.9c0.2,0,0.4-0.2,0.4-0.4V0.4c0-0.2-0.2-0.4-0.4-0.4h-6.9c-0.2,0-0.4,0.2-0.4,0.4v38.5    C84.9,39.1,85.1,39.3,85.3,39.3z"/><path id="XMLID_747_" d="M122.3,32.8v-13c0-1.4-0.2-2.8-0.6-4c-0.4-1.3-1.1-2.4-2.1-3.3c-1-0.9-2.3-1.6-3.8-2.2    c-1.6-0.5-3.5-0.8-5.9-0.8c-2,0-3.7,0.2-5.3,0.7c-1.6,0.5-2.9,1.1-4,2c-1.1,0.9-2.1,1.9-2.7,3c-0.6,1-1,2-1.2,3.1    c0,0.1-0.1,0.4-0.1,0.7c0,0.3,0.2,0.5,0.4,0.5h7.2c0.2,0,0.4-0.1,0.4-0.3c0.1-0.2,0.2-0.5,0.3-0.8c0.4-0.7,0.8-1.2,1.5-1.6    c0.9-0.5,2.2-0.8,3.7-0.8c1.6,0,2.7,0.2,3.5,0.7c0.7,0.4,1.1,1,1.1,1.8c0,1-0.6,1.7-1.7,2.1c-1.3,0.5-3.4,1-6.3,1.4    c-1.3,0.2-2.7,0.4-4,0.8c-1.3,0.3-2.6,0.8-3.6,1.5c-1.1,0.7-2,1.5-2.7,2.6c-0.7,1.1-1,2.4-1,4.1c0,1.6,0.3,2.9,0.9,4.1    c0.6,1.1,1.4,2.1,2.4,2.8c1,0.7,2.1,1.2,3.4,1.5c1.3,0.3,2.5,0.5,3.8,0.5c2.5,0,4.5-0.5,6.1-1.4c1.2-0.7,2.2-1.5,3-2.6    c0.1,0.6,0.6,3.3,0.6,3.3h6.8C122.3,39.2,122.3,34.1,122.3,32.8z M114.6,27.9c0,1.6-0.6,2.9-1.9,3.8c-1.3,1-3.1,1.5-5.2,1.5    c-1.6,0-2.7-0.2-3.4-0.7c-0.6-0.4-0.9-1-0.9-1.8c0-1,0.4-1.6,1.1-2c0.8-0.4,2-0.8,3.5-1.1c1.5-0.3,2.9-0.6,4.2-0.9    c1-0.2,1.9-0.6,2.7-1V27.9z"/><g id="XMLID_742_"><g id="XMLID_743_"><path id="XMLID_744_" d="M153.8,0h-6.9c-0.2,0-0.4,0.2-0.4,0.4v12.8c-0.7-0.8-1.5-1.6-2.5-2.2c-1.5-1-3.5-1.5-5.8-1.5      c-1.8,0-3.5,0.4-5.1,1.2c-1.6,0.8-3,1.8-4.3,3.2c-1.2,1.3-2.2,3-2.9,4.8c-0.7,1.9-1.1,3.9-1.1,6.1c0,2.2,0.3,4.2,1,6.1      c0.7,1.8,1.6,3.4,2.8,4.8c1.2,1.4,2.6,2.4,4.2,3.2c1.6,0.8,3.4,1.1,5.2,1.1c2.2,0,4.1-0.5,5.7-1.5c1.1-0.7,2-1.5,2.8-2.5v2.9      c0,0.2,0.2,0.4,0.4,0.4h6.7c0.2,0,0.4-0.2,0.4-0.4V0.4C154.2,0.2,154,0,153.8,0z M145.9,28.2c-0.4,1-0.9,1.8-1.5,2.5      c-0.6,0.7-1.3,1.2-2.2,1.6c-1.7,0.7-3.6,0.7-5.3,0c-0.8-0.4-1.6-0.9-2.2-1.6c-0.6-0.7-1.1-1.5-1.5-2.5c-0.4-1-0.5-2.2-0.5-3.5      c0-1.3,0.2-2.5,0.5-3.5c0.4-1,0.9-1.9,1.5-2.6c0.6-0.7,1.3-1.2,2.2-1.6c0.8-0.4,1.7-0.6,2.6-0.6c0.9,0,1.8,0.2,2.6,0.6      c0.8,0.4,1.6,0.9,2.2,1.6c0.6,0.7,1.1,1.6,1.5,2.6c0.4,1,0.5,2.2,0.5,3.5C146.5,26,146.3,27.2,145.9,28.2z"/></g></g><path id="XMLID_741_" d="M157.7,39.2h6.9c0.2,0,0.4-0.2,0.4-0.4V0.4c0-0.2-0.2-0.4-0.4-0.4h-6.9c-0.2,0-0.4,0.2-0.4,0.4v38.3    C157.3,39,157.5,39.2,157.7,39.2z"/><path id="XMLID_740_" d="M188.8,10.1c-0.2,0-0.3,0.1-0.4,0.3l-5.5,16.2c-0.2,0.5-0.4,1.1-0.5,1.7c-0.1,0.5-0.3,1-0.4,1.4    c-0.1-0.4-0.2-0.9-0.4-1.4c-0.2-0.6-0.3-1.2-0.5-1.7l-5.8-16.2c-0.1-0.2-0.2-0.3-0.4-0.3h-7.4c-0.3,0-0.5,0.3-0.4,0.6L178,39.2    l-0.3,0.9c-0.9,2.5-2.9,3.7-6.2,3.7h-1.1c-0.2,0-0.4,0.2-0.4,0.4v5.9c0,0.2,0.2,0.4,0.4,0.4h1.3c3.3,0,6-0.6,8-1.9    c2.1-1.3,3.6-3.2,4.6-5.8l12-32.2c0.1-0.3-0.1-0.6-0.4-0.6H188.8z"/></g><g id="XMLID_735_"><g id="XMLID_737_"><path id="XMLID_738_" class="st0" d="M19.6,0.7C8.8,0.7,0,9.4,0,20.2C0,31,8.8,39.8,19.6,39.8c10.8,0,19.6-8.8,19.6-19.6     C39.2,9.4,30.4,0.7,19.6,0.7z"/></g><polygon id="XMLID_736_" class="st1" points="31.5,18.9 20.9,18.9 20.9,8.3 18.2,8.3 18.2,18.9 7.6,18.9 7.6,21.6 18.2,21.6     18.2,32.2 20.9,32.2 20.9,21.6 31.5,21.6   "/></g></g></svg>