<svg width="450" height="156" viewBox="0 0 450 156" fill="none" xmlns="http://www.w3.org/2000/svg">
<path fill-rule="evenodd" clip-rule="evenodd" d="M79.76 137.02C48.98 137.02 30.45 115.84 30.45 76.12C30.45 37.07 45.68 15.89 70.5 15.89C88.7 15.89 98.3 26.15 98.3 44.68C98.3 46.6714 98.3239 48.9969 98.3484 51.392L98.3485 51.3939V51.394C98.3932 55.7576 98.4404 60.3522 98.35 63.58H127.7C127.746 60.9595 127.727 58.3871 127.709 55.9441V55.9429V55.9419C127.699 54.6939 127.69 53.4797 127.69 52.31C127.69 21.43 110.21 0 71.82 0C29.79 0 0 26.48 0 77.78C0 127.75 28.46 154.89 72.15 154.89C107.99 154.89 125.6 127.77 129.29 110.71H121.79C117.02 123.96 102.99 137.02 79.76 137.02ZM431.46 125.52V71.82C431.46 41.43 429.15 0.799988 373.98 0.799988C338.96 0.799988 319.91 22.79 319.91 39.9C319.91 44.39 319.88 50.25 319.86 53.59H346.42C346.42 53.59 346.55 45.07 346.55 41.1C346.55 28.34 358.1 16.66 372.32 16.66C390.53 16.66 399.86 30.46 401.7 48.36C393.724 61.9004 383.232 65.0622 370.903 68.7775L370 69.05C367.525 69.8002 363.658 70.6808 359.311 71.6709L359.31 71.671C351.257 73.5051 341.552 75.7153 335.98 78.17C325.37 82.84 307.93 93.17 309.83 118.04C312.12 148.06 340.5 155.54 358.27 155.54C387.72 155.54 402.44 127.93 403.7 121.12V153.09H450V144.5C437.47 144.49 431.46 139.54 431.46 125.52ZM364.46 136.4C343.55 136.4 341 119.75 340.52 116.13C338.24 98.97 352.67 91.92 364.99 87.24C365.68 86.9776 366.356 86.721 367.017 86.4698C377.396 82.5278 384.287 79.9107 389.26 76.94C394.2 73.99 399.04 70.68 402.25 66.94L402.5 74.53C402.49 75.77 402.47 79.4 402.47 87C402.48 98.2 391.29 136.4 364.46 136.4ZM220.29 154.89C265.63 154.89 291.78 124.44 291.78 77.44C291.78 30.45 265.63 0 220.29 0C174.95 0 148.8 30.45 148.8 77.44C148.8 124.44 174.95 154.89 220.29 154.89ZM220.29 15.88C247.76 15.88 258.02 42.36 258.02 77.44C258.02 112.53 247.76 139 220.29 139C192.82 139 182.56 112.52 182.56 77.44C182.56 42.36 192.82 15.88 220.29 15.88Z" fill="#0C383A"/>
</svg>
