<svg xmlns="http://www.w3.org/2000/svg" viewBox="0 0 152.21 24.08"><title>logo-header-text</title><path d="M39.75,16.78h3V11.91c0-1.79.65-2.32,1.61-2.32s1.39.53,1.39,1.85v5.34h3V11.91c0-1.79.65-2.32,1.59-2.32s1.41.55,1.41,1.87v5.32h3V10.91c0-2-.64-3.85-3.35-3.85a3.31,3.31,0,0,0-3,1.75,3.22,3.22,0,0,0-5.67-.12V7.32h-3Z" transform="translate(-29.96 0.05)"/><path d="M57.49,6.67a1.84,1.84,0,1,0,0-3.67,1.8,1.8,0,0,0-1.84,1.85A1.79,1.79,0,0,0,57.49,6.67ZM56,16.78h3V7.67H56Z" transform="translate(-29.96 0.05)"/><path d="M67.36,7.32V8.67a3.19,3.19,0,0,0-2.93-1.61c-2.72,0-4.53,2.1-4.53,4.89s1.69,4.83,4.49,4.83a3.35,3.35,0,0,0,3-1.53V16.5c0,1.69-.85,2.3-2.24,2.3-1.22,0-1.86-.45-2-1.2H60.06a3.41,3.41,0,0,0,1.69,2.63,6.55,6.55,0,0,0,3.41.77,5.84,5.84,0,0,0,3.37-.84,4.65,4.65,0,0,0,1.83-4V7.32Zm-2.14,7.14A2.26,2.26,0,0,1,63,12a2.26,2.26,0,1,1,4.51,0A2.27,2.27,0,0,1,65.22,14.46Z" transform="translate(-29.96 0.05)"/><path d="M77.64,7.06a3.21,3.21,0,0,0-3.06,1.63V3h-3V16.78h3v-5c0-1.45.63-2.24,1.83-2.24s1.66.73,1.66,2.32v4.87h3V10.93C81.09,8.36,79.94,7.06,77.64,7.06Z" transform="translate(-29.96 0.05)"/><path d="M86.63,14.44c-.75,0-1.32-.21-1.32-1.61V9.69h2.36V7.32H85.31V4.51h-3v9c0,3.16,1.94,3.48,3.36,3.48a10.3,10.3,0,0,0,2.93-.51s-.35-.67-.48-1-.32-1-.32-1A10.63,10.63,0,0,1,86.63,14.44Z" transform="translate(-29.96 0.05)"/><path d="M95.25,7.32V12c0,1.45-.61,2.39-1.83,2.39s-1.66-.82-1.66-2v-5h-3v5.49c0,2.36,1.08,4,3.49,4a3.16,3.16,0,0,0,3-1.57v1.47c0,1.47-.73,2.12-1.83,2.12s-1.58-.47-1.64-1.27h-3A3.38,3.38,0,0,0,89.93,20a5.27,5.27,0,0,0,3.49,1,5,5,0,0,0,3.48-1.1,4.49,4.49,0,0,0,1.35-3.42V7.32Z" transform="translate(-29.96 0.05)"/><path d="M103.12,16.62h3v-4.9c0-1.44.63-2.22,1.83-2.22s1.67.72,1.67,2.3v4.82h3v-5.8c0-2.55-1.16-3.83-3.46-3.83a3.22,3.22,0,0,0-3.07,1.61V7.24h-3Z" transform="translate(-29.96 0.05)"/><path d="M123.64,11.45c0-2.65-2-4.46-5-4.46s-5.1,1.87-5.1,4.94,2,4.95,5.2,4.95c2.52,0,4.43-1.23,4.72-3.08h-3c-.25.58-.84.84-1.77.84a1.94,1.94,0,0,1-2.22-1.89h7A10,10,0,0,0,123.64,11.45Zm-7.08-.55A1.9,1.9,0,0,1,118.67,9a1.78,1.78,0,0,1,2,1.91Z" transform="translate(-29.96 0.05)"/><path d="M128.93,14.31c-.75,0-1.32-.22-1.32-1.6V9.6H130l-.8-2.36h-1.6V4.46h-3v8.87c0,3.14,1.94,3.45,3.36,3.45a9.85,9.85,0,0,0,2.76-.37l-.81-2.12C129.65,14.32,129.26,14.31,128.93,14.31Z" transform="translate(-29.96 0.05)"/><path d="M133.74,16.62h2.7l1.8-5.7,1.83,5.7h2.69l3.4-9.38H143l-1.71,5.68-1.61-5.68h-2.93l-1.61,5.68-1.71-5.68h-3.15Z" transform="translate(-29.96 0.05)"/><path d="M150.73,16.88c3.25,0,5.25-2.09,5.25-4.95S154,7,150.73,7s-5.26,2.08-5.26,4.94S147.47,16.88,150.73,16.88Zm0-2.52a2.2,2.2,0,0,1-2.26-2.43,2.27,2.27,0,1,1,4.52,0A2.21,2.21,0,0,1,150.73,14.36Z" transform="translate(-29.96 0.05)"/><path d="M156.9,16.62h3V13c0-2.08.86-3.13,2.5-3.13a6.58,6.58,0,0,1,.9.06V7.16a3.44,3.44,0,0,0-.79-.07,2.65,2.65,0,0,0-2.61,2.12v-2h-3Z" transform="translate(-29.96 0.05)"/><path d="M173.72,16.62l-3.83-4.94,3.77-4.44h-3.54L167,11.19V3h-3V16.62h3V12.54l3,4.08Z" transform="translate(-29.96 0.05)"/><path d="M177.35,16.88c2.52,0,4.15-1.15,4.15-3.1a2.74,2.74,0,0,0-2.4-2.7l-2-.55c-.77-.19-1-.47-1-.89s.43-.76,1.08-.76c.8,0,1.29.35,1.29,1h3c0-1.87-1.55-2.9-4.22-2.9-2.44,0-4.05,1.17-4.05,2.94a2.73,2.73,0,0,0,2.38,2.74l2,.49c.81.19,1,.45,1,.87s-.45.86-1.1.86c-.92,0-1.55-.45-1.55-1.09h-3C172.87,15.63,174.66,16.88,177.35,16.88Z" transform="translate(-29.96 0.05)"/></svg>