<svg width="158" height="80" viewBox="0 0 158 80" fill="none" xmlns="http://www.w3.org/2000/svg">
<path d="M57.7873 48.5878C60.0747 50.8762 62.9159 52.0084 66.335 52.0084C69.754 52.0084 72.5952 50.8762 74.8827 48.5878C77.1701 46.2993 78.3017 43.4568 78.3017 40.012C78.3017 36.5673 77.1701 33.7248 74.8827 31.4363C72.5952 29.1478 69.754 28.0157 66.335 28.0157C62.9159 28.0157 60.0747 29.1478 57.7873 31.4363C55.4998 33.7248 54.3682 36.5673 54.3682 40.012C54.6571 43.4327 55.7888 46.2993 57.7873 48.5878ZM98.5032 62.0054V18.5968H109.314V62.0054C109.314 68.2927 107.894 72.8696 104.763 75.7121C101.633 78.5787 97.3715 80 91.0872 79.4219V68.8467C93.6394 69.1358 95.6379 68.5577 96.7696 67.4255C97.9253 66.5824 98.5032 64.583 98.5032 62.0054ZM146.611 18.5968H157.422V61.1623H146.611V56.2963C144.059 60.2951 139.773 62.2945 134.091 62.2945C129.54 62.2945 125.543 60.8732 122.702 57.7176C119.571 54.586 118.151 50.2981 118.151 44.854V18.5968H128.962V43.4568C128.962 46.3234 129.805 48.5878 131.249 50.0331C132.694 51.4785 134.957 52.3216 137.221 52.3216C140.062 52.3216 142.349 51.4544 144.059 49.7441C145.768 48.0337 146.611 45.4562 146.611 41.7465V18.5968ZM22.4889 62.5836C16.2286 62.5836 10.811 60.2951 6.54922 56.0072C1.99848 51.7194 0 46.2993 0 40.012C0 33.7248 1.99848 28.3047 6.26029 24.0169C10.5221 19.729 15.9397 17.4405 22.1999 17.4405C26.4617 17.4405 30.1698 18.3077 33.5888 20.3071C37.0079 22.3065 39.5602 24.8841 41.2697 28.3047L31.8793 33.7248C31.0366 32.0145 29.5919 30.5932 27.8824 29.4369C26.1728 28.2806 24.1743 28.0157 22.1999 28.0157C19.0698 28.3047 16.2286 29.4369 14.2301 31.4363C11.9427 33.7248 11.1 36.5673 11.1 40.012C11.1 43.4568 12.2316 46.2993 14.2301 48.2987C16.5175 50.5872 19.0698 51.7194 22.4889 51.7194C24.7763 51.7194 26.7507 51.1412 28.4602 50.2981C30.1698 49.4309 31.5904 48.0096 32.4572 46.0102L41.8476 51.4303C39.8491 54.851 37.2969 57.4285 33.8778 59.4279C30.1698 61.4273 26.4858 62.5836 22.4889 62.5836ZM78.0128 18.5968H88.8238V61.1623H78.0128V56.0313C74.5937 60.3192 70.043 62.3186 64.0716 62.3186C58.3892 62.3186 53.5495 60.0301 49.5526 55.7422C45.5556 51.4544 43.5812 46.0343 43.5812 39.7471C43.5812 33.4598 45.5797 28.0397 49.5526 23.7519C53.5255 19.464 58.3892 17.1755 64.0716 17.1755C70.043 17.1755 74.5937 19.1749 78.0128 23.4628V18.5968ZM104.186 13.7308C102.187 13.7308 100.767 13.1527 99.3459 11.7314C97.9253 10.3101 97.3475 8.8648 97.3475 6.8654C97.3475 4.866 97.9253 3.44475 99.3459 1.9994C100.767 0.578139 102.187 0 104.186 0C105.895 0 107.605 0.578139 109.025 1.9994C110.446 3.42066 111.024 4.866 111.024 6.8654C111.024 8.8648 110.181 10.2861 108.736 11.4423C107.605 12.8877 105.895 13.7308 104.186 13.7308ZM116.441 67.7145H158V80H116.441H109.603C113.865 78.2897 116.152 68.2927 116.441 67.7145Z" fill="#EE2737"/>
</svg>
