<svg height="324" viewBox="0 0 210 324" width="210" xmlns="http://www.w3.org/2000/svg" xmlns:xlink="http://www.w3.org/1999/xlink"><linearGradient id="a" gradientUnits="userSpaceOnUse" x1="174.443" x2="89.25" y1="0" y2="337.73"><stop offset="0" stop-color="#fff" stop-opacity=".38"/><stop offset="1" stop-opacity=".2"/></linearGradient><path d="m210 162.272v159.07c0 1.769-1.434 3.203-3.203 3.203h-203.594c-1.769 0-3.203-1.434-3.203-3.203v-318.139c0-1.769 1.434-3.203 3.203-3.203h203.594c1.769 0 3.203 1.434 3.203 3.203z" fill="#fff"/><path d="m-.129 0h210.127v324.545h-210.127z" fill="#0084ff"/><path d="m0 0h210.127v324.545h-210.127z" fill="url(#a)"/><path d="m9.147 0v324.545" fill="none" stroke="#000" stroke-linejoin="round" stroke-width=".475"/><path d="m22.461 73.236h6.256v-23.964h5.824v-4.564h-17.904v4.564h5.824zm14.621 0h6.256v-12.316h6.454v12.316h6.256v-28.528h-6.256v11.647h-6.454v-11.647h-6.256zm21.282 0h6.06l1.141-5.981h6.453l1.181 5.981h6.374l-6.847-28.528h-7.555zm10.427-22.468 2.44 12.513h-4.879zm14.885 22.468h6.256v-23.964h5.824v-4.564h-17.904v4.564h5.824zm-65.347 38h6.257v-11.293h1.849c6.139 0 10.27-1.456 10.27-8.736s-4.131-8.499-10.27-8.499h-8.106zm6.257-15.504v-8.853h1.062c3.502 0 4.407.629 4.407 4.446s-.905 4.407-4.407 4.407zm24.122-9.247c3.266 0 3.305 3.542 3.305 9.523v1.849c0 5.982-.039 9.523-3.305 9.523s-3.306-3.541-3.306-9.523v-1.849c0-5.981.04-9.523 3.306-9.523zm0 25.224c7.634 0 9.955-4.093 9.955-12.75v-4.053c0-8.657-2.321-12.749-9.955-12.749s-9.956 4.092-9.956 12.749v4.053c0 8.657 2.322 12.75 9.956 12.75zm26.101-.473h6.453l-4.682-13.694c2.715-1.101 4.289-3.069 4.289-7.004 0-6.178-3.266-7.83-10.703-7.83h-8.106v28.528h6.256v-12.277h1.692c.315 0 .63 0 .945-.039zm-6.493-16.094v-8.263h1.81c3.502 0 4.211.826 4.211 4.171s-.709 4.092-4.211 4.092zm19.625 16.094h6.257v-23.964h5.824v-4.564h-17.904v4.564h5.823zm14.621 0h6.257v-12.316h7.83v-4.565h-7.83v-7.083h8.657v-4.564h-14.914zm26.536-24.751c3.266 0 3.306 3.542 3.306 9.523v1.849c0 5.982-.04 9.523-3.306 9.523s-3.305-3.541-3.305-9.523v-1.849c0-5.981.039-9.523 3.305-9.523zm0 25.224c7.634 0 9.956-4.093 9.956-12.75v-4.053c0-8.657-2.322-12.749-9.956-12.749s-9.955 4.092-9.955 12.749v4.053c0 8.657 2.321 12.75 9.955 12.75zm13.352-.473h15.701v-4.564h-9.444v-23.964h-6.257zm18.253 0h6.257v-28.528h-6.257zm19.581-24.751c3.266 0 3.305 3.542 3.305 9.523v1.849c0 5.982-.039 9.523-3.305 9.523s-3.306-3.541-3.306-9.523v-1.849c0-5.981.04-9.523 3.306-9.523zm0 25.224c7.633 0 9.955-4.093 9.955-12.75v-4.053c0-8.657-2.322-12.749-9.955-12.749-7.634 0-9.956 4.092-9.956 12.749v4.053c0 8.657 2.322 12.75 9.956 12.75zm-161.955 37.527h8.932c6.06 0 9.602-1.652 9.602-8.342 0-3.895-1.85-5.902-4.998-6.847 1.928-.59 4.132-2.243 4.132-6.178 0-5.784-3.778-7.161-9.168-7.161h-8.5zm6.257-4.21v-8.618h2.006c3.542 0 3.975 1.692 3.975 4.329 0 2.558-.433 4.289-3.699 4.289zm0-12.435v-7.712h1.849c2.676 0 3.266 1.338 3.266 3.777 0 2.44-.59 3.935-3.266 3.935zm24.352-8.106c3.266 0 3.306 3.542 3.306 9.523v1.849c0 5.982-.04 9.523-3.306 9.523s-3.305-3.541-3.305-9.523v-1.849c0-5.981.039-9.523 3.305-9.523zm0 25.224c7.634 0 9.956-4.093 9.956-12.75v-4.053c0-8.657-2.322-12.749-9.956-12.749s-9.955 4.092-9.955 12.749v4.053c0 8.657 2.321 12.75 9.955 12.75zm22.634-25.224c3.266 0 3.305 3.542 3.305 9.523v1.849c0 5.982-.039 9.523-3.305 9.523s-3.305-3.541-3.305-9.523v-1.849c0-5.981.039-9.523 3.305-9.523zm0 25.224c7.634 0 9.956-4.093 9.956-12.75v-4.053c0-8.657-2.322-12.749-9.956-12.749s-9.955 4.092-9.955 12.749v4.053c0 8.657 2.321 12.75 9.955 12.75zm27.282-.473h6.414l-8.264-16.92 7.556-11.608h-6.139l-7.24 11.647v-11.647h-6.257v28.528h6.257v-7.988l2.164-3.344z" fill="#fff"/><path d="m108.086 126.877h1.395v-5.342h1.298v-1.017h-3.991v1.017h1.298zm3.259 0h1.246v-5h.017l.062.5.912 4.5h1.088l.912-4.5.061-.5h.018v5h1.245v-6.359h-1.938l-.842 4.763-.842-4.763h-1.939z" fill="#fff"/><path d="m18.804 285.852v-7.868h.728c1.736 0 2.226.742 2.226 3.64v.588c0 2.912-.49 3.64-2.226 3.64zm-1.666 1.148h2.324c2.632 0 4.046-.924 4.046-4.48v-1.134c0-3.612-1.414-4.536-4.046-4.536h-2.324zm6.694 0h1.61l.546-2.338h2.884l.546 2.338h1.708l-2.66-10.15h-2.002zm3.598-8.54 1.176 5.082h-2.366zm4.719 8.54h1.512v-7.994l2.898 7.994h1.974v-10.15h-1.512v7.994l-2.898-7.994h-1.974zm8.203 0h1.512v-7.994l2.898 7.994h1.974v-10.15h-1.512v7.994l-2.898-7.994h-1.974zm10.719 0h1.666v-4.144h.854c2.254 0 3.612-.532 3.612-3.038s-1.358-2.968-3.612-2.968h-2.52zm1.666-5.306v-3.71h.686c1.47 0 2.016.28 2.016 1.862s-.546 1.848-2.016 1.848zm5.375 5.306h5.32v-1.26h-3.654v-3.332h3.332v-1.26h-3.332v-3.038h3.654v-1.26h-5.32zm8.02 0h1.666v-8.89h2.31v-1.26h-6.286v1.26h2.31zm6.822 0h1.666v-8.89h2.31v-1.26h-6.286v1.26h2.31zm6.746 0h1.666v-4.088l2.646-6.062h-1.652l-1.806 4.55-1.792-4.55h-1.666l2.604 6.034zm-60.196 15.182c1.204 0 2.1-.42 2.786-1.204l.784 1.022h1.694l-1.652-2.156c.49-.84.854-2.002.882-3.444h-1.288c-.014.994-.182 1.778-.434 2.352l-1.778-2.338.098-.07c1.008-.7 1.75-1.4 1.75-2.604 0-1.47-1.134-2.072-2.31-2.072-1.386 0-2.38.784-2.38 2.072 0 .952.322 1.568 1.05 2.52l.014.014-.336.238c-1.19.826-1.904 1.456-1.904 2.828 0 1.708 1.19 2.842 3.024 2.842zm.196-1.134c-1.036 0-1.68-.784-1.68-1.75 0-.868.308-1.344 1.134-1.932l.252-.182 2.184 2.87c-.434.644-1.106.994-1.89.994zm-.686-7.308c0-.658.448-.994 1.022-.994.644 0 1.022.392 1.022 1.05 0 .7-.504 1.19-1.134 1.638l-.112.084-.056-.084c-.504-.672-.742-1.022-.742-1.694zm9.293 8.26h1.666v-4.592h3.052v-1.26h-3.052v-3.038h3.374v-1.26h-5.04zm10.788 0h1.722l-1.778-4.858c1.036-.364 1.596-1.078 1.596-2.52 0-2.198-1.162-2.772-3.724-2.772h-2.52v10.15h1.666v-4.494h.812c.224 0 .448-.014.658-.042zm-3.038-5.544v-3.472h.868c1.47 0 1.974.322 1.974 1.75 0 1.414-.504 1.722-1.974 1.722zm6.004 5.544h1.666v-10.15h-1.666zm3.487 0h5.32v-1.26h-3.654v-3.332h3.332v-1.26h-3.332v-3.038h3.654v-1.26h-5.32zm6.521 0h1.512v-7.994l2.898 7.994h1.974v-10.15h-1.512v7.994l-2.898-7.994h-1.974zm9.869-1.148v-7.868h.728c1.736 0 2.226.742 2.226 3.64v.588c0 2.912-.49 3.64-2.226 3.64zm-1.666 1.148h2.324c2.632 0 4.046-.924 4.046-4.48v-1.134c0-3.612-1.414-4.536-4.046-4.536h-2.324zm10.607.182c1.988 0 3.122-1.036 3.122-2.926 0-1.82-1.134-2.45-2.52-3.066l-1.176-.546c-.658-.28-.98-.63-.98-1.47s.476-1.358 1.33-1.358c.952 0 1.484.574 1.484 1.792v.084h1.624v-.084c0-2.086-1.246-2.94-3.094-2.94-1.75 0-2.94.854-2.94 2.576 0 1.68.84 2.338 2.17 2.94l1.092.504c.882.406 1.386.812 1.386 1.764 0 1.022-.504 1.568-1.498 1.568-1.106 0-1.638-.7-1.638-2.184v-.112h-1.638v.112c0 2.17 1.092 3.346 3.276 3.346z" fill="#fff"/><path d="m18.256 81.136h174.443v32.455h-174.443z" fill="#fff"/><g fill="#1b202b"><path d="m69.461 105.622c.932.666 1.616 1.278 2.397 1.689 1.675.871 3.397 1.652 5.143 2.435 1.745.782 3.372 1.72 4.76 3.035.374.353.655.793.983 1.166-.521.664-1.136.758-1.753.874-1.462.27-2.911.155-4.28-.32-2.065-.725-4.081-1.561-6.099-2.353-.358-.147-.739-.318-1.254-.539-.022.68-.061 1.178-.055 1.7.008 1.157.062 2.316.025 3.449-.043 1.337-.821 2.22-1.936 2.297-1.184.098-2.178-.728-2.293-2.093-.593-6.236-1.413-12.457-.869-18.747.321-3.619 1.071-7.157 2.52-10.536.882-2.014 1.987-3.884 3.492-5.514 1.341-1.454 2.876-2.584 4.78-3.203 4.658-1.529 8.763 1.395 8.9 6.3.038 1.635-.353 3.188-.992 4.687-.96 2.306-2.364 4.325-3.925 6.249-2.174 2.652-4.723 4.952-7.293 7.206-.681.704-1.338 1.363-2.251 2.218zm-.149-6.607c.276-.127.414-.168.506-.233 2.453-2.144 4.841-4.381 6.699-7.066.857-1.243 1.56-2.604 2.217-3.99.316-.648.456-1.437.478-2.14.039-1.904-1.137-2.737-2.907-2.045-.598.23-1.221.55-1.69.989-.82.79-1.619 1.649-2.262 2.581-1.526 2.243-2.425 4.777-2.874 7.44-.297 1.442-.186 2.921-.167 4.464z"/><path d="m28.124 97.161c.22-4.009.936-7.888 2.193-11.659.88-2.649 2.12-5.195 3.983-7.336 1.934-2.229 4.232-3.788 7.259-4.053 3.12-.307 5.815 1.323 6.969 4.241.798 2 .778 4.019.167 6.063-.563 1.956-1.483 3.742-2.606 5.452-3.079 4.665-6.907 8.603-11.395 11.906-.605.457-.8.882-.734 1.633.28 3.979.514 7.98.749 11.958.043.773.131 1.57.128 2.341.008.477-.055 1.019-.251 1.444-.635 1.386-2.478 1.508-3.322.233-.259-.394-.425-.899-.5-1.378-.706-4.129-1.48-8.283-2.027-12.43-.363-2.825-.431-5.618-.613-8.415zm5.319-.214c.23-.083.32-.08.367-.124 3.513-3.335 6.805-6.859 9.234-11.068.553-.958.996-2.01 1.257-3.068.185-.811.147-1.719-.031-2.542-.257-1.165-1.126-1.67-2.309-1.595-1.069.056-1.992.503-2.829 1.134-1.21.914-2.111 2.087-2.856 3.379-1.276 2.228-2.035 4.653-2.751 7.126-.685 2.224-.438 4.433-.082 6.758z"/><path d="m109.814 88.368c-.201 3.42-.397 6.68-.602 10.191.531-.256.831-.405 1.153-.553 1.888-.824 3.756-1.716 5.665-2.471 1.08-.419 2.243-.586 3.415-.321.203.052.407.059.609.133.604.269 1.415.454 1.438 1.158.009.432-.51 1.028-.95 1.308-.976.672-2.017 1.296-3.1 1.783-2.373 1.058-4.787 2.023-7.181 3.035-1.036.443-1.081.442-1.025 1.51.099 2.544.243 5.113.343 7.657.027.568.076 1.159.012 1.725-.102 1.04-.83 1.788-1.788 1.938-.981.15-1.874-.333-2.296-1.299-.19-.437-.333-.941-.363-1.419-.165-1.933-.238-3.864-.403-5.798-.277-3.367-.645-6.714-.922-10.081-.143-1.888-.219-3.773-.248-5.68-.017-.886.15-1.81.337-2.689.584-2.613 2.291-4.146 4.873-4.675 1.051-.216 2.119-.249 3.19-.374 3.029-.287 6.058-.598 9.109-.862.774-.066 1.569-.108 2.338-.015.746.092 1.438.455 1.638 1.301.179.777-.228 1.422-.808 1.811-.719.476-1.504.882-2.307 1.151-2.753.886-5.605 1.339-8.511 1.358-1.183.053-2.32.129-3.616.178z"/><path d="m54.01 89.944c.157.05.291.1.406.081 2.479-.169 4.165 1.065 5.371 3.078 1.292 2.152 1.919 4.554 2.339 6.996.805 4.586.522 9.137-1.141 13.508-.496 1.322-1.175 2.662-2.051 3.768-2.441 3.165-6.262 3.405-9.17.656-2.137-2.02-3.12-4.616-3.505-7.442-.516-3.692.033-7.327.965-10.882.544-2.069 1.088-4.162 1.923-6.109 1.103-2.528 2.542-4.909 4.558-6.863.351-.329.77-.656 1.207-.823.276-.105.678.09 1.017.146-.055.293-.022.657-.166.902-.504.846-1.053 1.668-1.579 2.513-.095.133-.123.291-.174.471zm-4.538 16.075c-.087 1.971-.004 4.334.898 6.609.462 1.172 1.109 2.214 2.129 2.973 1.153.831 2.178.728 3.01-.424.546-.754 1.006-1.624 1.284-2.5 1.76-5.275 1.566-10.522-.423-15.691-.231-.598-.598-1.177-.92-1.732-.259-.417-.662-.588-1.163-.559-1.477.043-2.873 1.109-3.26 2.549-.769 2.72-1.291 5.517-1.555 8.775z"/><path d="m131.026 91.618c.498.039.86.073 1.199.107 4.73.471 8.263 4.215 8.473 8.964.262 5.93-3.889 11.445-9.512 12.647-.64.138-1.301.208-1.959.209-3.089.036-5.485-1.675-6.411-4.632-.742-2.338-.574-4.715-.134-7.083.518-2.683 1.531-5.236 2.789-7.624.942-1.761 2.198-3.377 3.828-4.64.395-.305.813-.587 1.272-.731.458-.144.981-.149 1.431-.044.293.078.691.408.749.705.06.251-.226.673-.482.869-.396.328-.926.56-1.243 1.253zm-5.063 13.336c.073.547.151 1.661.434 2.714.367 1.305 1.258 1.833 2.598 1.808.364-.011.729-.067 1.094-.146 3.226-.758 5.873-4.007 6.075-7.427.18-2.762-1.205-4.849-3.885-5.525-1.08-.285-2.263-.209-3.42-.247-.521-.017-.804.292-1.001.762-.94 2.397-1.655 4.87-1.895 8.061z"/><path d="m98.303 80.736c-.029.203-.08.36-.062.519.287 7.27-.242 14.49-.703 21.736-.232 3.668-.623 7.308-.945 10.951-.033.316.024.658-.009.975-.04.543-.548.822-.946.491-.398-.33-.724-.795-.936-1.255-.722-1.544-1.03-3.233-1.089-4.913-.077-1.841-.108-3.702-.025-5.56.385-6.998 1.065-13.964 2.015-20.899.061-.474.123-.972.189-1.627-.523.028-.955.06-1.387.091-2.917.337-5.832.628-8.744.103-.361-.057-.722-.137-1.082-.239-.562-.155-.961-.463-1.031-1.1-.07-.66.264-1.149.839-1.38.644-.251 1.352-.387 2.037-.501 1.825-.281 3.692-.448 5.518-.752 3.766-.649 7.536-1.39 11.304-2.062 1.712-.308 3.441-.41 5.18-.127.722.114 1.815.013 1.967.926.133.821-.877 1.151-1.499 1.426-1.566.698-3.177 1.372-4.827 1.863-1.605.493-3.293.733-4.939 1.088-.252.083-.527.165-.825.246z"/><path d="m170.483 88.039c.525-.074.867-.131 1.186-.166 3.373-.413 6.113 1.196 7.42 4.324.842 2.024 1 4.162.772 6.31-.325 3.007-1.255 5.813-3.015 8.274-.713.998-1.583 1.923-2.56 2.64-2.186 1.631-4.88 1.385-6.908-.473-1.125-1.035-1.832-2.328-2.308-3.75-.579-1.743-.748-3.541-.826-5.359-.01-.386-.086-.842-.28-1.143-.736-1.136-.787-2.34-.408-3.553.278-.853.757-1.632 1.169-2.435s.913-1.559 1.302-2.363c.78-1.654 1.693-3.212 3.095-4.437.42-.373.931-.719 1.437-.907.367-.124.91-.084 1.291.087.649.293.649.974.047 1.34-.601.344-1.002.807-1.414 1.611zm-2.851 10.231c-.09-.003-.18-.029-.271-.032.238 1.755.431 3.509.738 5.243.173.981.643 1.881 1.347 2.584.901.914 1.762.965 2.698.11.445-.416.868-.879 1.203-1.413 1.433-2.177 2.192-4.603 2.277-7.209.04-1.247-.102-2.477-.656-3.606-.575-1.176-1.419-1.725-2.7-1.426-.823.177-1.609.606-2.305 1.082-1.647 1.082-2.827 2.45-2.331 4.667z"/><path d="m148.917 92.923c-.217 6.709-.411 13.418-.673 20.125-.073 1.541-.373 3.097-.672 4.63-.11.586-.468 1.142-.825 1.629-.498.665-1.179.666-1.61-.052-.409-.694-.724-1.475-.902-2.275-.198-.914-.28-1.87-.295-2.823-.003-3.426-.005-6.852.127-10.251.287-7.455.619-14.909 1.041-22.337.172-3.239.437-6.498 1.266-9.67.205-.742.48-1.504.82-2.197.388-.759 1.078-1.054 1.731-.874.675.181 1.043.737 1.037 1.622-.021.657-.133 1.311-.154 1.969-.334 6.818-.669 13.659-1.026 20.477 0 0 .068.002.135.027z"/><path d="m158.512 96.001c-.573 4.361-1.122 8.722-1.763 13.08-.174 1.174-.619 2.294-.974 3.44-.102.359-.25.718-.485.982-.259.287-.656.614-.973.581-.316-.033-.734-.454-.815-.775-.233-1.21-.465-2.442-.448-3.667.038-1.882.213-3.782.455-5.657.462-3.752.992-7.501 1.522-11.25.117-.813.256-1.626.463-2.413.287-1.125.824-1.607 1.617-1.558.793.048 1.297.609 1.327 1.79.01 1.815-.094 3.627-.152 5.417.09.003.158.005.226.03z"/><path d="m156.213 79.341c-.998-.032-1.763-.964-1.683-2.028.078-.996.874-1.764 1.85-1.755.953.008 1.701.758 1.67 1.733-.014 1.134-.886 2.104-1.837 2.05z"/></g></svg>