<svg width="117" height="28" viewBox="0 0 117 28" fill="none" xmlns="http://www.w3.org/2000/svg">
<path d="M11.7226 26.5377H1V1H24.9152V26.5377H14.2093" stroke="#060707" stroke-width="2" stroke-miterlimit="10" stroke-linecap="round" stroke-linejoin="round"/>
<path d="M5.02344 8.59766V22.2202H17.9574L5.02344 8.59766Z" stroke="#060707" stroke-width="2" stroke-miterlimit="10" stroke-linecap="round" stroke-linejoin="round"/>
<path d="M20.8846 18.9488V5.31738H7.95898L20.8846 18.9488Z" stroke="#060707" stroke-width="2" stroke-miterlimit="10" stroke-linecap="round" stroke-linejoin="round"/>
<path d="M38.82 19.2C37.3533 19.2 36.18 18.7933 35.3 17.98C34.4333 17.1667 33.9733 16.04 33.92 14.6L33.9 13.8L33.92 13C33.9733 11.56 34.4333 10.4333 35.3 9.62C36.18 8.80667 37.3533 8.4 38.82 8.4C39.86 8.4 40.74 8.58667 41.46 8.96C42.1933 9.33333 42.7333 9.79333 43.08 10.34C43.44 10.8733 43.6333 11.38 43.66 11.86C43.6733 11.9933 43.6267 12.1067 43.52 12.2C43.4267 12.2933 43.3133 12.34 43.18 12.34H41.42C41.2867 12.34 41.18 12.3133 41.1 12.26C41.0333 12.1933 40.9667 12.0867 40.9 11.94C40.7 11.42 40.4333 11.0467 40.1 10.82C39.78 10.5933 39.3667 10.48 38.86 10.48C38.18 10.48 37.6467 10.7 37.26 11.14C36.8733 11.5667 36.6667 12.22 36.64 13.1L36.62 13.84L36.64 14.5C36.6933 16.2467 37.4333 17.12 38.86 17.12C39.38 17.12 39.8 17.0067 40.12 16.78C40.44 16.5533 40.7 16.18 40.9 15.66C40.9667 15.5133 41.0333 15.4133 41.1 15.36C41.18 15.2933 41.2867 15.26 41.42 15.26H43.18C43.3133 15.26 43.4267 15.3067 43.52 15.4C43.6267 15.4933 43.6733 15.6067 43.66 15.74C43.6333 16.2067 43.4467 16.7067 43.1 17.24C42.7533 17.7733 42.22 18.2333 41.5 18.62C40.78 19.0067 39.8867 19.2 38.82 19.2ZM48.7658 19.2C48.0858 19.2 47.4591 19.0667 46.8858 18.8C46.3258 18.52 45.8791 18.1467 45.5458 17.68C45.2258 17.2133 45.0658 16.7 45.0658 16.14C45.0658 15.2333 45.4324 14.5 46.1658 13.94C46.8991 13.38 47.9058 13 49.1858 12.8L51.9258 12.4V11.98C51.9258 11.3933 51.7791 10.9533 51.4858 10.66C51.1924 10.3667 50.7191 10.22 50.0658 10.22C49.6258 10.22 49.2658 10.3067 48.9858 10.48C48.7191 10.64 48.5058 10.8 48.3458 10.96C48.1858 11.1333 48.0791 11.2467 48.0258 11.3C47.9724 11.46 47.8724 11.54 47.7258 11.54H46.1858C46.0658 11.54 45.9591 11.5 45.8658 11.42C45.7858 11.34 45.7458 11.2333 45.7458 11.1C45.7591 10.7667 45.9191 10.3867 46.2258 9.96C46.5458 9.53333 47.0324 9.16667 47.6858 8.86C48.3391 8.55333 49.1391 8.4 50.0858 8.4C51.6591 8.4 52.8058 8.75333 53.5258 9.46C54.2458 10.1667 54.6058 11.0933 54.6058 12.24V18.52C54.6058 18.6533 54.5591 18.7667 54.4658 18.86C54.3858 18.9533 54.2724 19 54.1258 19H52.5058C52.3724 19 52.2591 18.9533 52.1658 18.86C52.0724 18.7667 52.0258 18.6533 52.0258 18.52V17.74C51.7324 18.1667 51.3124 18.52 50.7658 18.8C50.2324 19.0667 49.5658 19.2 48.7658 19.2ZM49.4458 17.3C50.1791 17.3 50.7791 17.06 51.2458 16.58C51.7124 16.1 51.9458 15.4 51.9458 14.48V14.06L49.9458 14.38C49.1724 14.5 48.5858 14.6933 48.1858 14.96C47.7991 15.2267 47.6058 15.5533 47.6058 15.94C47.6058 16.3667 47.7858 16.7 48.1458 16.94C48.5058 17.18 48.9391 17.3 49.4458 17.3ZM57.6516 19C57.5182 19 57.4049 18.9533 57.3116 18.86C57.2182 18.7667 57.1716 18.6533 57.1716 18.52V9.1C57.1716 8.96667 57.2182 8.85333 57.3116 8.76C57.4049 8.65333 57.5182 8.6 57.6516 8.6H59.2716C59.4182 8.6 59.5382 8.64667 59.6316 8.74C59.7249 8.83333 59.7716 8.95333 59.7716 9.1V9.92C60.0916 9.49333 60.4916 9.16667 60.9716 8.94C61.4649 8.71333 62.0249 8.6 62.6516 8.6H63.4716C63.6182 8.6 63.7316 8.64667 63.8116 8.74C63.9049 8.82 63.9516 8.93333 63.9516 9.08V10.52C63.9516 10.6533 63.9049 10.7667 63.8116 10.86C63.7316 10.9533 63.6182 11 63.4716 11H61.9116C61.2849 11 60.7916 11.18 60.4316 11.54C60.0716 11.9 59.8916 12.3933 59.8916 13.02V18.52C59.8916 18.6533 59.8449 18.7667 59.7516 18.86C59.6582 18.9533 59.5382 19 59.3916 19H57.6516ZM70.0552 23.4C68.8685 23.4 67.9085 23.2 67.1752 22.8C66.4418 22.4133 65.9218 21.9667 65.6152 21.46C65.3085 20.9533 65.1552 20.52 65.1552 20.16C65.1552 20.04 65.2018 19.9333 65.2952 19.84C65.4018 19.7467 65.5152 19.7 65.6352 19.7H67.3752C67.4952 19.7 67.5952 19.7267 67.6752 19.78C67.7685 19.8467 67.8418 19.96 67.8952 20.12C68.0285 20.48 68.2418 20.78 68.5352 21.02C68.8418 21.2733 69.3152 21.4 69.9552 21.4C70.7552 21.4 71.3418 21.22 71.7152 20.86C72.1018 20.5 72.2952 19.88 72.2952 19V17.64C71.5618 18.5067 70.5352 18.94 69.2152 18.94C67.8285 18.94 66.7818 18.5133 66.0752 17.66C65.3818 16.8067 65.0085 15.66 64.9552 14.22L64.9352 13.68L64.9552 13.14C65.0085 11.7267 65.3885 10.5867 66.0952 9.72C66.8018 8.84 67.8418 8.4 69.2152 8.4C69.9218 8.4 70.5418 8.53333 71.0752 8.8C71.6085 9.06667 72.0552 9.43333 72.4152 9.9V9.1C72.4152 8.95333 72.4618 8.83333 72.5552 8.74C72.6485 8.64667 72.7618 8.6 72.8952 8.6H74.5152C74.6485 8.6 74.7618 8.65333 74.8552 8.76C74.9485 8.85333 74.9952 8.96667 74.9952 9.1L75.0152 18.74C75.0152 20.22 74.6018 21.3667 73.7752 22.18C72.9485 22.9933 71.7085 23.4 70.0552 23.4ZM69.9552 16.82C70.7152 16.82 71.2818 16.58 71.6552 16.1C72.0418 15.62 72.2552 15.0333 72.2952 14.34C72.3085 14.2333 72.3152 14.0133 72.3152 13.68C72.3152 13.36 72.3085 13.1467 72.2952 13.04C72.2552 12.3333 72.0418 11.74 71.6552 11.26C71.2818 10.78 70.7152 10.54 69.9552 10.54C68.5152 10.54 67.7552 11.4267 67.6752 13.2L67.6552 13.68C67.6552 14.6267 67.8218 15.3867 68.1552 15.96C68.5018 16.5333 69.1018 16.82 69.9552 16.82ZM82.2794 19.2C80.7194 19.2 79.5127 18.8 78.6594 18C77.806 17.1867 77.346 16.08 77.2794 14.68L77.2594 13.8L77.2794 12.92C77.346 11.5333 77.8127 10.4333 78.6794 9.62C79.546 8.80667 80.746 8.4 82.2794 8.4C83.8127 8.4 85.0127 8.80667 85.8794 9.62C86.746 10.4333 87.2127 11.5333 87.2794 12.92C87.2927 13.08 87.2994 13.3733 87.2994 13.8C87.2994 14.2267 87.2927 14.52 87.2794 14.68C87.2127 16.08 86.7527 17.1867 85.8994 18C85.046 18.8 83.8394 19.2 82.2794 19.2ZM82.2794 17.22C82.986 17.22 83.5327 17 83.9194 16.56C84.306 16.1067 84.5194 15.4467 84.5594 14.58C84.5727 14.4467 84.5794 14.1867 84.5794 13.8C84.5794 13.4133 84.5727 13.1533 84.5594 13.02C84.5194 12.1533 84.306 11.5 83.9194 11.06C83.5327 10.6067 82.986 10.38 82.2794 10.38C81.5727 10.38 81.026 10.6067 80.6394 11.06C80.2527 11.5 80.0394 12.1533 79.9994 13.02L79.9794 13.8L79.9994 14.58C80.0394 15.4467 80.2527 16.1067 80.6394 16.56C81.026 17 81.5727 17.22 82.2794 17.22ZM91.1753 19C91.042 19 90.9286 18.96 90.8353 18.88C90.7553 18.7867 90.7153 18.6733 90.7153 18.54V10.2H89.0153C88.882 10.2 88.7686 10.16 88.6753 10.08C88.5953 9.98667 88.5553 9.87333 88.5553 9.74V9.06C88.5553 8.92667 88.5953 8.82 88.6753 8.74C88.7686 8.64667 88.882 8.6 89.0153 8.6H90.7153V7.6C90.7153 5.33333 91.862 4.2 94.1553 4.2H95.3553C95.4886 4.2 95.5953 4.24667 95.6753 4.34C95.7686 4.42 95.8153 4.52667 95.8153 4.66V5.34C95.8153 5.47333 95.7686 5.58667 95.6753 5.68C95.5953 5.76 95.4886 5.8 95.3553 5.8H94.1953C93.5953 5.8 93.1753 5.96 92.9353 6.28C92.6953 6.58667 92.5753 7.06 92.5753 7.7V8.6H95.1553C95.2886 8.6 95.3953 8.64667 95.4753 8.74C95.5686 8.82 95.6153 8.92667 95.6153 9.06V9.74C95.6153 9.87333 95.5686 9.98667 95.4753 10.08C95.3953 10.16 95.2886 10.2 95.1553 10.2H92.5753V18.54C92.5753 18.6733 92.5286 18.7867 92.4353 18.88C92.3553 18.96 92.2486 19 92.1153 19H91.1753ZM97.3038 19C97.1704 19 97.0571 18.96 96.9638 18.88C96.8838 18.7867 96.8438 18.6733 96.8438 18.54V5.26C96.8438 5.12667 96.8838 5.02 96.9638 4.94C97.0571 4.84667 97.1704 4.8 97.3038 4.8H98.2438C98.3771 4.8 98.4838 4.84667 98.5638 4.94C98.6571 5.02 98.7038 5.12667 98.7038 5.26V18.54C98.7038 18.6733 98.6571 18.7867 98.5638 18.88C98.4838 18.96 98.3771 19 98.2438 19H97.3038ZM101.889 6.66C101.756 6.66 101.643 6.62 101.549 6.54C101.469 6.44667 101.429 6.33333 101.429 6.2V5.12C101.429 4.98667 101.469 4.87333 101.549 4.78C101.643 4.68667 101.756 4.64 101.889 4.64H103.149C103.283 4.64 103.396 4.68667 103.489 4.78C103.583 4.87333 103.629 4.98667 103.629 5.12V6.2C103.629 6.33333 103.583 6.44667 103.489 6.54C103.396 6.62 103.283 6.66 103.149 6.66H101.889ZM102.049 19C101.916 19 101.803 18.96 101.709 18.88C101.629 18.7867 101.589 18.6733 101.589 18.54V9.06C101.589 8.92667 101.629 8.82 101.709 8.74C101.803 8.64667 101.916 8.6 102.049 8.6H103.009C103.143 8.6 103.249 8.64667 103.329 8.74C103.423 8.82 103.469 8.92667 103.469 9.06V18.54C103.469 18.6733 103.423 18.7867 103.329 18.88C103.249 18.96 103.143 19 103.009 19H102.049ZM106.413 22.8C106.28 22.8 106.166 22.7533 106.073 22.66C105.993 22.58 105.953 22.4733 105.953 22.34V9.06C105.953 8.92667 105.993 8.82 106.073 8.74C106.166 8.64667 106.28 8.6 106.413 8.6H107.333C107.466 8.6 107.573 8.64667 107.653 8.74C107.746 8.82 107.793 8.92667 107.793 9.06V9.94C108.54 8.91333 109.633 8.4 111.073 8.4C112.473 8.4 113.52 8.84 114.213 9.72C114.92 10.6 115.3 11.7333 115.353 13.12C115.366 13.2667 115.373 13.4933 115.373 13.8C115.373 14.1067 115.366 14.3333 115.353 14.48C115.3 15.8533 114.92 16.9867 114.213 17.88C113.506 18.76 112.46 19.2 111.073 19.2C109.686 19.2 108.606 18.7 107.833 17.7V22.34C107.833 22.4733 107.793 22.58 107.713 22.66C107.633 22.7533 107.526 22.8 107.393 22.8H106.413ZM110.653 17.58C111.6 17.58 112.286 17.2867 112.713 16.7C113.153 16.1133 113.393 15.34 113.433 14.38C113.446 14.2467 113.453 14.0533 113.453 13.8C113.453 11.28 112.52 10.02 110.653 10.02C109.733 10.02 109.04 10.3267 108.573 10.94C108.12 11.54 107.873 12.26 107.833 13.1L107.813 13.86L107.833 14.64C107.86 15.4267 108.113 16.1133 108.593 16.7C109.073 17.2867 109.76 17.58 110.653 17.58Z" fill="#060607"/>
</svg>
