<svg width="132" height="52" viewBox="0 0 132 52" fill="none" xmlns="http://www.w3.org/2000/svg">
<path d="M9.57971 41.7959V22.9706H19.5914V41.7959H26.0422V16.5586H9.57971V15.6365C9.57971 13.1127 10.8699 11.9965 13.2113 11.9965C13.498 11.9965 14.4218 11.9965 15.9827 11.9965V6.26953C13.8802 6.26953 12.3671 6.26953 11.4433 6.26953C8.38511 6.26953 3.17668 7.77406 3.17668 15.2482V16.5586H0.0229492V22.9706H3.17668V41.7959H9.57971ZM43.0055 51.8909C48.6439 51.8909 56.0982 49.5613 56.0982 39.9031V16.5586H49.6952V19.9559H49.4085C48.7873 18.5485 46.0158 16.0733 41.6197 16.0733C35.8857 16.0733 29.6738 20.4413 29.6738 29.1773C29.6738 37.9133 35.8857 42.2813 41.6197 42.2813C46.0158 42.2813 48.7873 39.8061 49.4085 38.3986H49.6952V40.3399C49.6952 44.1741 46.637 46.4551 41.8586 46.4551C39.4217 46.4551 36.9369 45.8242 35.7901 45.0477V50.3378C37.2714 51.3085 40.1384 51.8909 43.0055 51.8909ZM42.9099 36.4573C39.3261 36.4573 35.9812 33.885 35.9812 29.1773C35.9812 24.4695 39.3261 21.8973 42.9099 21.8973C46.5415 21.8973 49.8385 24.421 49.8385 29.1773C49.8385 33.9335 46.5415 36.4573 42.9099 36.4573ZM70.3378 42.2813C74.0649 42.2813 76.5975 40.5826 77.9832 38.3501V41.7959H84.3862V16.5586H77.9832V30.3421C77.9832 34.0306 75.9285 36.4573 72.6792 36.4573C69.3343 36.4573 67.3752 34.0306 67.3752 30.3421V16.5586H60.9722V31.4098C60.9722 39.0781 65.2727 42.2813 70.3378 42.2813ZM95.6632 41.7959V30.7789C95.6632 25.7314 98.6736 22.3341 103.5 22.3341C104.073 22.3341 104.551 22.3826 105.124 22.4797V16.2674C104.551 16.1218 104.025 16.0731 103.452 16.0731C102.014 16.0731 96.5233 16.269 95.6632 20.1517V16.5586H89.2602V41.7959H95.6632ZM119.425 42.2813C123.821 42.2813 127.405 40.437 129.46 37.8162L126.545 34.6615C124.729 36.2631 122.579 36.9426 120.142 36.9426C116.415 36.9426 113.452 35.1469 112.544 31.701H131.132C132.518 20.5869 125.35 16.0733 119.043 16.0733C112.687 16.0733 106.476 20.6839 106.476 29.1773C106.476 37.5735 112.592 42.2813 119.425 42.2813ZM125.446 26.9447H112.449C113.261 23.3047 116.128 21.5575 119.09 21.5575C122.101 21.5575 125.063 23.3533 125.446 26.9447Z" fill="#292929"/>
<path fill-rule="evenodd" clip-rule="evenodd" d="M26.0421 11.9965V6.26953H19.5913V11.9965H26.0421Z" fill="#13CCA5"/>
<path fill-rule="evenodd" clip-rule="evenodd" d="M32.4928 6.27185V0.544922H26.042V6.27185H32.4928Z" fill="#13CCA5"/>
</svg>
