<svg fill="none" height="40" width="261" xmlns="http://www.w3.org/2000/svg" xmlns:xlink="http://www.w3.org/1999/xlink"><defs><path id="a" d="M69.417 30h5.08V19.8c0-3.76 1.84-5.96 5.04-5.96h1.88V8.88h-1.52c-2.64 0-4.48 1.52-5.4 3.48h-.16l-.4-3.16h-4.52z"/><path id="b" d="M93.69 30.36c6.68 0 10.08-4.6 10.08-10.72 0-6.16-3.48-10.8-10.08-10.8-6.64 0-10.12 4.64-10.12 10.8s3.4 10.72 10.12 10.72zm0-4.72c-3 0-4.64-2.04-4.64-6s1.6-6.08 4.64-6.08c3 0 4.64 2.08 4.64 6.08 0 3.96-1.64 6-4.64 6z"/><path id="c" d="M176.007 30.36c5.04 0 8.84-2.32 8.84-6.48 0-4.12-2.72-5.64-6.08-6.32l-3.8-.68c-1.32-.28-2.12-.84-2.12-1.88 0-1.12 1.16-1.88 2.96-1.88 2.2 0 3.28 1.2 3.28 2.64h5.28c0-3.96-3.28-6.92-8.48-6.92-5.28 0-8.28 2.72-8.28 6.12 0 3.84 2.72 5.68 6.08 6.32l3.36.64c1.64.32 2.4.96 2.4 2 0 1.08-1.08 1.92-3.44 1.92-2.44 0-3.68-1.24-3.68-2.84h-5.36c.12 4.36 3 7.36 9.04 7.36z"/></defs><g fill="#0b132b"><path d="M44.16 30h5.48v-9.6h6.52c5.64 0 9.24-3.92 9.24-9.28 0-5.2-3.52-9.12-9.24-9.12h-12zm5.48-14.52v-8.6h5.52c2.92 0 4.64 1.52 4.64 4.24 0 2.92-1.6 4.36-4.64 4.36z"/><use xlink:href="#a"/><use xlink:href="#b"/><path d="M116.222 39.52c5.84 0 9.92-3.4 9.92-8.48V9.2h-4.8l-.56 2.24h-.16c-1.04-1.36-2.76-2.6-5.72-2.6-5.32 0-8.56 4.4-8.56 10.8 0 6.16 3.12 10.72 8.56 10.72 2.96 0 4.68-1.24 5.72-2.6h.16v3.2c0 2.24-1.48 3.96-4.56 3.96-2.44 0-3.88-1.32-4.04-2.88h-5.24c.12 4.48 3.76 7.48 9.28 7.48zm.16-13.88c-3.44 0-4.6-2.76-4.6-6 0-3.28 1.24-6.08 4.6-6.08s4.6 2.8 4.6 6.08c0 3.24-1.2 6-4.6 6z"/><use x="61.21" xlink:href="#a"/><path d="M154.82 30.36c5.36 0 8.76-3.08 9.32-6.84h-5.24c-.4 1.28-1.68 2.4-4.08 2.4-3.08 0-4.52-2-4.56-4.84h14.16V19c0-5.68-3.48-10.16-9.68-10.16-6.68 0-9.96 4.88-9.96 10.8 0 6 3.6 10.72 10.04 10.72zm-4.52-12.84c.12-2.36 1.44-4.2 4.44-4.2 2.8 0 4.12 1.84 4.2 4.2z"/><use xlink:href="#c"/><use x="20.43" xlink:href="#c"/><path d="M211.707 6.6c2.12 0 3.32-1.24 3.32-3.28 0-1.96-1.2-3.2-3.32-3.2-2.2 0-3.32 1.24-3.32 3.2 0 2.04 1.12 3.28 3.32 3.28zm-2.72 23.4h5.36V9.2h-5.36z"/><use x="134.14" xlink:href="#b"/><path d="M241.643 30h5.36V18.48c0-2.96 1.72-4.76 4.28-4.76 2.68 0 3.84 1.56 3.84 4.16V30h5.36V16.36c0-4.64-2.96-7.52-7.56-7.52-2.84 0-4.76 1.16-5.92 2.72h-.16l-.4-2.36h-4.8z"/></g><g fill="#6fcf97"><rect height="7.467" rx="1" width="22.28" x=".178" y="22.533"/><rect height="7.467" rx="1" width="22.28" x="4.868" y="12.267"/><rect height="7.467" rx="1" width="22.28" x="8.385" y="2"/></g></svg>