<svg fill="none" xmlns="http://www.w3.org/2000/svg" viewBox="0 0 80 34"><g clip-path="url(#clip0)" fill="#DF444B"><path d="M10.768 0v13.409h2.213V8.168c0-1.797.756-3.033 2.41-3.033 1.653 0 2.207 1.082 2.207 2.666v5.608h2.295V7.173c0-2.488-1.205-4.019-3.615-4.019a3.498 3.498 0 00-3.317 1.98V0h-2.193zM3.408 13.409h2.309V3.014h3.547V.99H0v2.024h3.408v10.395z"/><path fill-rule="evenodd" clip-rule="evenodd" d="M26.636 13.67c-3.374 0-5.023-1.932-5.023-5.048v-.246c-.021-.96.194-1.911.627-2.768.834-1.57 2.362-2.454 4.468-2.454 1.721 0 2.936.59 3.736 1.546a5.364 5.364 0 011.147 3.482v1.063H23.88c.193 1.638 1.2 2.546 2.849 2.546 1.22 0 1.928-.483 2.28-1.343h2.448c-.578 2.038-2.193 3.222-4.82 3.222zm-2.743-6.217h5.418c-.154-1.531-.988-2.492-2.588-2.492s-2.57.908-2.83 2.492z"/><path d="M13.092 17.041h-2.295v12.423h8.272v-2.149h-5.977V17.041z"/><path fill-rule="evenodd" clip-rule="evenodd" d="M23.445 29.716c-2.169 0-3.263-1.044-3.263-2.681a2.744 2.744 0 011.301-2.454c.261-.186.55-.33.853-.43a15.005 15.005 0 012.589-.54c1.788-.223 2.502-.484 2.502-1.286s-.54-1.362-2.102-1.362c-1.653 0-2.41.715-2.468 2.005H20.51c.159-2.28 1.826-3.777 4.694-3.777a6.332 6.332 0 012.589.434c1.301.565 1.822 1.628 1.822 3.077v6.762h-1.841l-.242-2.004c-.68 1.3-2.02 2.256-4.087 2.256zm2.487-2.213a3.108 3.108 0 001.514-2.574v-.541a4.947 4.947 0 01-2.02.642c-1.214.194-1.701.333-2.169.628a1.186 1.186 0 00-.602 1.043c0 .841.52 1.256 1.566 1.256a3.153 3.153 0 001.711-.454z"/><path d="M31.813 19.442v10.022h2.28v-5.23c0-1.865.848-3.049 2.482-3.049 1.634 0 2.16 1.024 2.16 2.662v5.617h2.29v-6.173c0-2.492-1.292-4.09-3.703-4.09a3.38 3.38 0 00-3.374 2.246l-.207-2.005h-1.928z"/><path fill-rule="evenodd" clip-rule="evenodd" d="M46.987 29.663c-2.555 0-4.237-1.793-4.237-5.169v-.246a6.26 6.26 0 01.554-2.768 3.929 3.929 0 013.755-2.265c1.649 0 2.743.715 3.317 1.932v-5.1h2.207v13.417H50.69l-.241-2.086a3.48 3.48 0 01-3.46 2.285zm3.441-5.188V24.3c0-1.932-1.007-3.188-2.655-3.188-1.649 0-2.68 1.169-2.68 3.169v.193c0 2.144 1.08 3.222 2.588 3.222 1.706 0 2.748-1.237 2.748-3.222z"/><path d="M57.177 19.442h-2.31v10.022h2.31V19.442zM59.413 29.464V19.442h1.928l.207 2.004a3.38 3.38 0 013.374-2.246c2.41 0 3.702 1.599 3.702 4.091v6.173H66.33v-5.617c0-1.638-.52-2.662-2.155-2.662-1.634 0-2.477 1.184-2.477 3.048v5.231h-2.285z"/><path fill-rule="evenodd" clip-rule="evenodd" d="M70.095 31.614c0 .942.414 1.671 1.769 2.072.948.245 1.927.354 2.906.324h.12c3.476 0 5.13-1.324 5.13-3.517 0-1.797-1.22-2.941-4.016-2.941H73.99c-1.186 0-1.6-.18-1.6-.662 0-.333.154-.527.853-.647a8.901 8.901 0 011.543-.087h.159c2.83 0 4.516-1.29 4.516-3.41v-.073c0-1.507-1.007-2.637-2.868-2.898 2.14-.02 2.94-.454 2.94-2.053v-.333h-2.66v.14c0 .956-.14 1.425-.7 1.637-.42.136-.858.21-1.3.223l-.507.038c-2.357.155-3.856 1.237-3.856 3.236a2.714 2.714 0 002.053 2.84c-1.392.295-2.154.99-2.154 2s.569 1.69 1.928 1.884c-1.581.362-2.241 1.15-2.241 2.227zm5.803-2.16c1.456 0 1.981.455 1.981 1.15 0 .957-.92 1.517-2.988 1.517h-.367c-1.566 0-2.188-.647-2.188-1.27v-.039c0-.696.535-1.236 1.769-1.357h1.793zm1.268-6.752v.048c0 1.184-.733 1.778-2.227 1.763-1.355 0-2.155-.594-2.155-1.758v-.053c0-1.275.93-1.86 2.174-1.86 1.244 0 2.208.469 2.208 1.86z"/><path d="M3.933 29.667c1.169 0 2.116-.95 2.116-2.12 0-1.171-.947-2.12-2.116-2.12s-2.116.949-2.116 2.12c0 1.17.947 2.12 2.116 2.12zM57.543 16.423c0 .827-.67 1.497-1.494 1.497-.826 0-1.495-.67-1.495-1.497a1.496 1.496 0 112.989 0z"/></g><defs><clipPath id="clip0"><path fill="#fff" d="M0 0h80v34H0z"/></clipPath></defs></svg>