<svg width="214" height="44" viewBox="0 0 214 44" fill="none" xmlns="http://www.w3.org/2000/svg">
<path d="M18.9 6C8.5 6 0 14.5 0 24.9C0 35.3 8.5 43.8 18.9 43.8C26.4 43.8 32.9 39.4 35.9 33.1C37.1 30.6 37.7 27.9 37.7 24.9C37.7 22 37 19.2 35.9 16.7C32.9 10.4 26.4 6 18.9 6Z" fill="#008F8E"/>
<path d="M38.9 0C37.8 0 36.7 0.4 35.9 1.1C34.8 2 34.1 3.4 34.1 4.9C34.1 6.4 34.8 7.8 35.9 8.7C36.7 9.4 37.8 9.8 38.9 9.8C41.6 9.8 43.8 7.6 43.8 4.9C43.8 2.2 41.6 0 38.9 0Z" fill="#008F8E"/>
<path d="M76.8 30.8L71.7 15.1H67.2L62.2 30.8L57.6 15.2H52.3L59.7 38.1H64.3L69.4 22.5L74.5 38.1H79.2L86.6 15.2H81.4L76.8 30.8Z" fill="#132034"/>
<path d="M183.7 14.5C177.9 14.5 173 18.7 171.9 24.2C171.7 25 171.7 25.7 171.7 26.6C171.7 27.4 171.8 28.2 171.9 29C173 34.5 177.9 38.7 183.7 38.7C187 38.7 190 37.4 192.2 35.2L188.9 31.9C187.6 33.2 185.7 34 183.7 34C180.5 34 177.7 31.9 176.8 29H183.7H186.1H190.7H195.6C195.8 28.2 195.8 27.5 195.8 26.6C195.8 25.8 195.7 25 195.6 24.2C194.4 18.7 189.6 14.5 183.7 14.5ZM183.7 24.2H176.8C177.8 21.3 180.5 19.2 183.7 19.2C186.9 19.2 189.7 21.3 190.6 24.2H183.7Z" fill="#132034"/>
<path d="M101.4 14.5C94.8 14.5 89.4 19.9 89.4 26.5C89.4 33.1 94.8 38.5 101.4 38.5C108 38.5 113.4 33.1 113.4 26.5C113.4 19.9 108 14.5 101.4 14.5ZM101.4 33.9C97.4 33.9 94.1 30.6 94.1 26.6C94.1 22.6 97.4 19.3 101.4 19.3C105.4 19.3 108.7 22.6 108.7 26.6C108.7 30.6 105.4 33.9 101.4 33.9Z" fill="#132034"/>
<path d="M162.1 17C160.1 15.4 157.5 14.5 154.8 14.5C148.2 14.5 142.8 19.9 142.8 26.5C142.8 33.1 148.2 38.5 154.8 38.5C161.4 38.5 166.8 33.1 166.8 26.5V5.60001H162.1V17ZM154.8 33.9C150.8 33.9 147.5 30.6 147.5 26.6C147.5 22.6 150.8 19.3 154.8 19.3C158.8 19.3 162.1 22.6 162.1 26.6C162.1 30.6 158.8 33.9 154.8 33.9Z" fill="#132034"/>
<path d="M128.2 14.7C122.6 14.7 118 19.3 118 24.9V38.1H123.2V24.9C123.2 22.1 125.5 19.9 128.2 19.9C131 19.9 133.2 22.2 133.2 24.9V38.1H138.4V24.9C138.4 19.3 133.8 14.7 128.2 14.7Z" fill="#132034"/>
<path d="M210.6 14.5C205 14.5 200.4 19.1 200.4 24.7V37.9H205.6V24.7C205.6 21.9 207.9 19.7 210.6 19.7H213.2V14.5H210.6Z" fill="#132034"/>
</svg>
