<svg fill="none" height="188" viewBox="0 0 184 188" width="184" xmlns="http://www.w3.org/2000/svg" xmlns:xlink="http://www.w3.org/1999/xlink"><clipPath id="a"><path d="m0 0h184v188h-184z"/></clipPath><g clip-path="url(#a)"><g fill="#434140"><path d="m39.0481 158.016 5.0289 3.898-.986 1.299-3.6485-2.798-1.6763 2.199 2.9582 2.298-.986 1.3-2.9582-2.299-1.775 2.299 3.6485 2.798-.9861 1.3-5.0289-3.898z"/><path d="m47.1344 164.013 2.7609 1.599c2.6624 1.599 3.6485 4.797 2.1694 7.396s-4.7331 3.398-7.3955 1.799l-2.761-1.599zm-1.6764 9.495c1.9722 1.099 4.0429.499 5.029-1.3.986-1.799.493-3.998-1.3805-5.097l-1.2819-.8-3.6484 6.397z"/><path d="m62.4178 171.609c2.1694.899 3.5499 2.898 3.4513 4.897l-1.8736-.7c-.1972-1.099-.986-2.099-2.2679-2.598-2.0707-.8-4.0429.2-4.8317 2.199-.7889 1.999.0986 4.097 2.1693 4.897 1.7749.7 3.4512 0 4.3387-1.599l-3.3526-1.299.5916-1.5 5.029 1.999c-1.0847 3.998-4.2401 5.197-7.0997 4.098-2.9582-1.099-4.2401-4.198-3.1554-7.096.986-3.099 4.0428-4.498 7.001-3.298z"/><path d="m70.7015 174.507 6.2123 1.399-.3945 1.599-4.4373-.999-.5916 2.698 3.6484.8-.3944 1.599-3.6484-.8-.5917 2.799 4.4373.999-.3944 1.6-6.1136-1.4z"/><path d="m92.0006 186.401c-1.0846 1.099-2.0707 1.599-3.3526 1.599-2.0707 0-3.3526-1.399-3.254-3.198 0-1.5 1.0847-2.299 2.1693-2.999-.5916-.6-1.1833-1.399-1.1833-2.399 0-1.399 1.2819-2.498 2.8596-2.498 1.6764 0 2.761 1.299 2.6624 2.598 0 1.3-.8874 1.999-1.9721 2.599l1.9721 1.999 1.1833-1.399h1.9721l-2.0707 2.398 2.6624 2.699h-2.1694zm-3.254.1c.7889 0 1.4791-.4 2.268-1.2l-2.3666-2.398c-1.0847.599-1.5777 1.199-1.5777 1.999-.0986 1.099.7889 1.599 1.6763 1.599zm.2958-5.298c.7889-.399 1.3805-.799 1.3805-1.499 0-.699-.493-1.199-1.1833-1.299-.6902 0-1.1832.4-1.2818 1.099 0 .7.493 1.1 1.0846 1.699z"/><path d="m113.496 185.401-7.296-6.296 1.479 7.496-1.677.3-2.07-10.395 1.479-.3 7.297 6.297-1.479-7.496 1.676-.3 2.071 10.394z"/><path d="m125.23 181.903c-2.86 1.1-5.917-.3-7.001-3.198-1.085-2.899.295-5.997 3.155-7.096 2.761-1.1 5.916.299 7.001 3.198.986 2.898-.394 5.997-3.155 7.096zm-.592-1.599c1.972-.7 2.86-2.898 2.071-4.897s-2.86-2.999-4.733-2.199c-1.973.799-2.86 2.898-2.071 4.897s2.761 2.999 4.733 2.199z"/><path d="m129.568 168.211 2.761-1.6c2.663-1.599 5.917-.799 7.396 1.799 1.479 2.599.591 5.797-2.169 7.396l-2.761 1.6zm7.199 6.196c1.972-1.099 2.465-3.298 1.479-5.097s-3.156-2.399-5.029-1.299l-1.282.799 3.648 6.397z"/><path d="m140.021 161.714 5.029-3.898.986 1.299-3.648 2.799 1.676 2.199 2.959-2.299.986 1.299-2.959 2.299 1.775 2.299 3.649-2.799.986 1.299-5.029 3.898z"/><path d="m12.9174 141.125-1.7749-3.198c-.8875-1.699-.2959-3.399.986-4.198.7889-.5 1.5777-.4 2.268-.1-.0986-1 .1972-2.099 1.3805-2.699 1.5777-.899 3.3526-.299 4.3387 1.5l1.9721 3.598zm2.1693-5.297c-.493-.8-1.2819-1.1-1.9721-.7s-.9861 1.199-.493 1.999l.8874 1.599 2.4652-1.399zm3.7471-2.699c-.493-.999-1.3805-1.199-2.1694-.799-.7888.399-.986 1.299-.493 2.298l1.0847 2.099 2.6624-1.499z"/><path d="m15.6767 121.935c.8874 2.299-.0987 4.598-2.5638 5.497l-6.01503 2.299-.59164-1.599 6.01497-2.299c1.5777-.6 2.0708-1.799 1.5777-3.198-.493-1.399-1.7749-1.999-3.254-1.399l-6.01498 2.298-.59164-1.599 6.01502-2.299c2.4652-1.099 4.6345 0 5.4234 2.299z"/><path d="m2.85927 116.338-.39443-1.699 10.15646-2.499.3945 1.699z"/><path d="m1.28019 109.042-.295815-1.699 8.775995-1.2-.69025-4.797 1.67628-.2.8875 6.596z"/><path d="m.0977972 97.6482-.09860666-3.1983c-.09860664-3.1983 2.16934946-5.597 5.12754946-5.697 2.9582 0 5.32476 2.2988 5.32476 5.4971l.0986 3.2982zm8.7759928-3.3982c0-2.2988-1.67631-3.798-3.74705-3.698-2.07074.0999-3.64845 1.5991-3.54984 3.8979v1.4992l7.29689-.1999z"/><path d="m.492188 83.6556.197213-1.6991 10.452299 1.1994-.1972 1.6991z"/><path d="m13.4099 70.9624-8.77597 3.9979 7.39547 1.799-.3944 1.6991-10.15648-2.3987.39442-1.4992 8.67736-3.9979-7.29686-1.799.39442-1.6991 10.15644 2.3987z"/><path d="m7.19734 56.5699c.88746-2.1988 3.05676-3.4982 4.93036-3.2983l-.7889 1.7991c-1.0847.0999-2.16933.8995-2.66236 2.1988-.88746 1.9989 0 4.0978 1.97216 4.9974 1.9721.7995 4.0428.0999 4.9303-1.999.7889-1.799.0986-3.4981-1.3805-4.3976l-1.3805 3.2982-1.4791-.5997 2.0708-4.9973c3.8456 1.2993 4.9303 4.4976 3.747 7.396-1.1833 2.8985-4.3387 4.1978-7.0997 2.9985-2.85956-1.3993-4.04284-4.4977-2.85956-7.3961z"/><path d="m17.5519 41.378-1.7749 2.4986-1.3805-.9994 4.5359-6.4966 1.3805.9995-1.7749 2.4987 7.1982 5.1972-.986 1.3992z"/><path d="m22.0879 32.5826 1.1833-1.2993 3.1554 2.9984 3.5498-3.798-3.1554-2.9984 1.1833-1.2993 7.5927 7.2962-1.1833 1.2993-3.254-3.0984-3.5498 3.798 3.254 3.0983-1.1833 1.2994z"/><path d="m32.4414 22.1883 4.9303-3.9979.9861 1.2993-3.5498 2.8985 1.6763 2.0989 2.8596-2.2988.986 1.2993-2.8596 2.2988 1.775 2.2988 3.5498-2.8985.9861 1.2993-4.9304 3.9979z"/><path d="m47.0352 11.7937 2.8595-1.4992c2.761-1.39925 5.9164-.39978 7.2969 2.1988 1.3805 2.6986.1973 5.797-2.5637 7.2962l-2.8596 1.4992zm6.9024 6.5965c1.9722-.9995 2.6624-3.0984 1.6763-4.9973-.986-1.899-2.9582-2.5987-4.9303-1.5992l-1.3805.6996 3.254 6.5965z"/><path d="m59.7539 5.89698 6.015-2.09888.493 1.59915-4.3386 1.4992.8874 2.59861 3.5499-1.19936.493 1.59915-3.5499 1.19935.8875 2.6986 4.3387-1.4992.493 1.5991-5.9164 2.0989z"/><path d="m75.334 1.39932c2.4651-.499735 4.7331.79957 5.6205 2.69856l-1.8735.29984c-.6902-1.09941-2.0707-1.69909-3.5498-1.39925-2.1694.39979-3.3527 2.29878-2.9582 4.39766.3944 2.09888 2.1693 3.49817 4.3387 3.09837 1.4791-.2999 2.5637-1.29933 2.761-2.59864l1.8735-.29984c-.0986 2.09889-1.7749 4.19778-4.3387 4.59758-3.0568.5997-5.8178-1.2993-6.4094-4.39768-.4931-2.99841 1.4791-5.79692 4.5359-6.3966z"/><path d="m85.3926.29984 6.3108-.29984.0986 1.6991-4.5359.19989.0986 2.69856 3.6485-.09994.0986 1.69909-3.6485.09995.0986 2.89846 4.5359-.1999.0986 1.69909-6.3108.2999z"/><path d="m103.636 11.4939-5.1279-8.2956-.7888 7.596-1.6763-.1999 1.0846-10.5944 1.4791.199894 5.1273 8.195636.789-7.595955 1.775.199893-1.085 10.594332z"/><path d="m113.595 4.39775-2.958-.79958.394-1.59915 7.593 1.99894-.395 1.59915-2.958-.79958-2.169 8.69537-1.676-.3998z"/><path d="m123.258 5.49707 3.55 1.39926c1.775.69962 2.465 2.39872 1.873 3.99787-.592 1.3993-1.676 1.9989-3.254 1.6991l1.874 5.8969-1.972-.7996-1.874-5.7969-.69-.2999-1.775 4.2977-1.578-.6996zm1.676 5.49703c.986.3998 1.676.1999 2.071-.6996.296-.79956-.099-1.49918-.986-1.89897l-1.775-.69963-1.085 2.5986z"/><path d="m137.95 12.5933 1.282.7995-1.381 11.4939-1.578-.8995.395-2.9984-4.043-2.3987-2.465 1.799-1.578-.8995zm-.986 6.5965.493-4.2978-3.452 2.4987z"/><path d="m147.022 18.5901 1.38 1.0994-5.522 6.9963 3.747 2.9984-.986 1.2993-5.127-4.0978z"/><path d="m155.502 25.8862 1.282 1.1994-7.297 7.596-1.282-1.1994z"/><path d="m152.938 36.6804 9.368-.7996-3.353-4.0978 1.282-1.0994 4.832 5.8969-.888.7995-9.367.7996 3.55 4.2977-1.282 1.0994-5.029-6.0967z"/><path d="m168.124 40.8782 3.352 5.3971-1.38.8995-2.465-3.8979-2.268 1.4992 1.972 3.1983-1.381.8995-1.972-3.1983-2.366 1.4992 2.465 3.8979-1.381.8996-3.352-5.3972z"/><path d="m174.039 50.9729 1.381 2.9984c1.282 2.8985.197 5.9968-2.465 7.2961-2.663 1.2993-5.719 0-7.1-2.8984l-1.38-2.9984zm-6.803 6.6964c.887 2.0989 2.958 2.7985 4.831 1.899 1.874-.8995 2.663-2.8984 1.775-4.9973l-.591-1.3993-6.607 3.0984z"/><path d="m181.139 70.1626 1.38 6.1967-1.577.3998-.986-4.4976-2.663.5997.789 3.4981-1.578.3998-.788-3.4981-4.339.9994-.395-1.6991z"/><path d="m172.955 86.3541c-.197-2.4986 1.282-4.3976 3.944-4.5975l6.41-.4998.098 1.6991-6.409.4998c-1.676.0999-2.465 1.1993-2.367 2.6985.099 1.4992 1.184 2.3988 2.761 2.1989l6.41-.4998.098 1.7991-6.409.4997c-2.564.2998-4.339-1.3993-4.536-3.798z"/><path d="m182.224 97.448.197-3.0984 1.677.1-.395 7.8954-1.676-.1.197-3.0979-8.874-.4998.098-1.799z"/><path d="m171.674 109.342c.493-2.499 2.465-3.798 5.029-3.298l6.311 1.299-.296 1.699-6.311-1.299c-1.578-.3-2.761.5-3.057 1.899-.296 1.499.493 2.598 2.071 2.898l6.311 1.3-.296 1.699-6.311-1.3c-2.564-.499-3.846-2.498-3.451-4.897z"/><path d="m179.759 121.235-1.282 3.598c-.69 1.899-2.268 2.599-3.845 1.999-1.381-.499-1.972-1.699-1.874-3.198l-5.719 2.099.69-1.999 5.621-2.099.296-.7-4.339-1.599.592-1.699zm-5.324 1.899c-.296 1-.099 1.699.788 2.099.888.3 1.48-.1 1.874-1.099l.592-1.799-2.663-.9z"/><path d="m175.026 133.329-2.86 5.697-1.479-.8 2.071-4.097-2.366-1.2-1.677 3.298-1.479-.799 1.676-3.298-2.563-1.3-2.071 4.098-1.479-.799 2.859-5.697z"/></g><path d="m132.824 89.4525-37.4707 10.8945v14.792l12.7207-3.698c-.198 1.899-.691 3.698-1.381 5.497-1.972 4.797-5.621 8.595-10.3537 10.494-4.7331 1.999-9.9592 1.999-14.6924 0-4.7331-1.999-8.4801-5.697-10.3537-10.494-4.0428-9.895.5917-21.2888 10.3537-25.4866 2.3666-.9995 4.7332-1.4992 7.2969-1.4992h.0986c12.9176 0 23.3696-10.5944 23.3696-23.6874s-10.452-23.6874-23.3696-23.6874c-12.9174 0-23.3697 10.6943-23.3697 23.7873 0 5.3972 1.7749 10.2946 4.7331 14.2924-13.4105 8.8953-19.1297 26.4859-12.8189 42.0779 3.4513 8.495 10.0579 15.092 18.4395 18.69 4.24 1.799 8.5787 2.598 13.016 2.598s8.776-.899 13.0166-2.598c13.804-5.797 21.89-19.79 20.904-34.182l9.959-2.898v-14.8925zm-43.7816-31.7831c4.7332 0 8.5788 3.8979 8.5788 8.6953 0 4.7975-3.8456 8.6954-8.5788 8.6954h-.0986c-4.6345-.0999-8.4801-3.8979-8.4801-8.6954 0-4.7974 3.8456-8.6953 8.5787-8.6953z" fill="#17203e"/></g></svg>