<svg id="HomeAdvisor_logo" xmlns="http://www.w3.org/2000/svg" viewBox="0 0 810.21 115.42"><path class="cls-1" d="M772,36h13.22v8.58q4-8.58,14.8-8.58a20.21,20.21,0,0,1,10.16,2.47l-5,12.62a13.29,13.29,0,0,0-8-2.27c-7.79,0-11.84,4.15-11.84,14.11V93.65H772Z"/><path class="cls-1" d="M466.5,21.7H480l25.65,72h-14l-4.44-12.82H459.3l-4.44,12.82h-14Zm-2.66,46.36h18.94l-9.47-27.32Z"/><path class="cls-1" d="M504.26,64.91c0-19.14,14-30.09,28.61-30.09,7.5,0,14.21,3,18.45,8V20.72h13.41v73H551.42V86.22a23.67,23.67,0,0,1-18.75,8.68C518.76,94.9,504.26,83.85,504.26,64.91Zm47.85-.2c0-9.86-7.3-17.75-17.27-17.75a17.37,17.37,0,0,0-17.46,17.75c0,10.06,7.6,18,17.46,18S552.11,74.68,552.11,64.71Z"/><path class="cls-1" d="M570.4,36.21h13.91l14.9,40.64,14.6-40.64h13.71l-21.7,57.7H592.4Z"/><path class="cls-1" d="M640,13.72c5.23,0,8.39,3.35,8.39,8.38s-3.16,8.29-8.39,8.29c-5.43,0-8.39-3.26-8.39-8.29S634.86,13.72,640,13.72Zm-6.71,22.49H646.7v57.7H633.28Z"/><path class="cls-1" d="M651.69,81.09,664,75.17a14.78,14.78,0,0,0,13.91,8.39c6.61,0,9.87-3.16,9.87-7,0-4.24-6.42-5-13.52-6.61-9.87-2.07-20.22-5.22-20.22-17.36,0-9.27,9-17.65,22.69-17.65,11.74,0,19.14,4.53,23.58,11.93L689,52.58A13.68,13.68,0,0,0,676.75,46c-6.32,0-9.28,3-9.28,6.22,0,3.85,4.54,4.83,13.22,6.71C690.16,60.77,701,64.12,701,76.26c0,8.08-7.21,18.84-23.68,18.84C664.41,95.1,656.33,90.16,651.69,81.09Z"/><path class="cls-1" d="M705.48,64.85a29.9,29.9,0,1,1,29.9,30A29.73,29.73,0,0,1,705.48,64.85Zm46.67,0c0-9.77-7.3-17.56-16.77-17.56S718.6,55.08,718.6,64.85c0,9.57,7.21,17.46,16.78,17.46S752.15,74.42,752.15,64.85Z"/><path class="cls-1" d="M199.13,64.06H171.51V93.75H158.09v-72h13.42V51.24h27.62V21.75h13.42v72H199.13Z"/><path class="cls-1" d="M218.75,65a29.9,29.9,0,1,1,29.9,30A29.72,29.72,0,0,1,218.75,65Zm46.67,0c0-9.77-7.3-17.56-16.77-17.56S231.87,55.18,231.87,65c0,9.57,7.21,17.46,16.78,17.46S265.42,74.52,265.42,65Z"/><path class="cls-1" d="M284.74,36.05H298v6.71a20.06,20.06,0,0,1,16.48-7.89c9.07,0,15.29,3.65,18.74,10a22.14,22.14,0,0,1,18.95-10c15.68,0,23.48,9.07,23.48,24.16V93.75H362V60.12c0-8.39-4.24-13.71-12.53-13.71-7.2,0-12.73,4.93-12.73,15.09V93.75H323.22v-34c0-8.28-4.14-13.31-12.14-13.31-7.49,0-13,5.13-13,15.38v32H284.74Z"/><path class="cls-1" d="M381.81,65.05a29.77,29.77,0,0,1,30-30.18c17.17,0,29.7,12.62,29.7,29.69v5h-47c1.87,8.18,8.28,13.61,17.76,13.61a16.82,16.82,0,0,0,16-10.16l11,6.31c-5,9.37-13.91,15.59-26.93,15.59C394.14,94.94,381.81,81.72,381.81,65.05Zm13.42-6.61H428c-2-7.79-7.89-11.84-16.18-11.84A17,17,0,0,0,395.23,58.44Z"/><path class="cls-1" d="M89.11,55.71,55.89,22.52a6.53,6.53,0,0,0-3.82-2,5.41,5.41,0,0,0-4.22,1.56L20.72,49.36c-2.31,2.83-2.88,4.26-2.88,8.55l.07,23.6c0,6,5,12.22,12,12.22H68.53C69.82,93.73,71.06,95,72,96l17.51,18a5.14,5.14,0,0,0,5.08,1.24,4.31,4.31,0,0,0,2.73-4.42l0-17.05h14.06c6.46,0,11.7-4.89,11.7-12.52l.07-21.52-24.61,0A12.19,12.19,0,0,1,89.11,55.71Z"/><path class="cls-1" d="M139.19,42.21,100.32,2.82C98,.91,94.82,0,90.6,0H50.83A15.81,15.81,0,0,0,40.12,4.16L2,42.24A5.28,5.28,0,0,0,0,46.15,4.88,4.88,0,0,0,4.93,51a6.63,6.63,0,0,0,4.44-2.31c4.57-4.61,32-32,32.62-32.6,3.49-3.08,6.4-4.12,10-4.12,3.81,0,6.75,1.58,9.47,4.27L95,49.8A4.36,4.36,0,0,0,98.48,51l37.49,0a4.82,4.82,0,0,0,4.56-2.93C140.82,47.43,141.59,45,139.19,42.21Z"/></svg>