<svg width="120" height="120" viewBox="0 0 120 120" fill="none" xmlns="http://www.w3.org/2000/svg">
<g clip-path="url(#clip0)">
<path fill-rule="evenodd" clip-rule="evenodd" d="M60.2471 9.14355V43.1055H26.2852L60.2471 9.14355Z" fill="#FC5579"/>
<path fill-rule="evenodd" clip-rule="evenodd" d="M60.2467 43.1055V77.0675L26.2847 43.1055H60.2467Z" fill="#36FD9C"/>
<path fill-rule="evenodd" clip-rule="evenodd" d="M94.2095 43.1055V77.0675H60.2476L94.2095 43.1055Z" fill="#FFE600"/>
<path fill-rule="evenodd" clip-rule="evenodd" d="M60.2467 76.9197V110.882H26.2847L60.2467 76.9197Z" fill="#36FD9C"/>
<path fill-rule="evenodd" clip-rule="evenodd" d="M94.2095 76.9197L60.2476 110.882V76.9197H94.2095Z" fill="#32E3CF"/>
<path fill-rule="evenodd" clip-rule="evenodd" d="M94.2095 9.14331L60.2476 43.1053V9.14331H94.2095Z" fill="#CF449E"/>
<path fill-rule="evenodd" clip-rule="evenodd" d="M60.2596 7.37115H94.2077C94.9243 7.37115 95.5705 7.80286 95.8447 8.46499C96.119 9.12711 95.9674 9.88925 95.4606 10.396L62.0176 43.839V72.7892L92.9547 41.8521C93.4615 41.3453 94.2236 41.1937 94.8858 41.468C95.5479 41.7423 95.9796 42.3884 95.9796 43.1051V76.9054C95.9797 76.9145 95.9797 76.9235 95.9796 76.9325V77.067C95.9796 77.7758 95.5635 78.3874 94.9622 78.6708L61.5008 112.132C61.1977 112.436 60.7849 112.631 60.3267 112.651C60.2951 112.653 60.2635 112.654 60.2318 112.653H26.2837C25.567 112.653 24.9209 112.222 24.6467 111.559C24.3724 110.897 24.524 110.135 25.0308 109.628L57.666 76.9932L25.0401 44.3673C24.9549 44.2834 24.8779 44.1906 24.8105 44.0898C24.7206 43.9554 24.6504 43.8104 24.6007 43.6593C24.5409 43.4779 24.5117 43.2909 24.5117 43.1051C24.5118 42.7571 24.6144 42.4136 24.8105 42.1203C24.8779 42.0195 24.9549 41.9267 25.0401 41.8428L58.9927 7.89013C59.0244 7.85846 59.0571 7.82817 59.0907 7.79929C59.3953 7.53729 59.7749 7.39089 60.1647 7.37297C60.1963 7.37151 60.2279 7.3709 60.2596 7.37115ZM58.4738 41.3331V13.4209L30.5615 41.3331H58.4738ZM62.0176 38.8272L89.9299 10.915H62.0176V38.8272ZM58.4738 81.1972V109.109H30.5615L58.4738 81.1972ZM64.6712 75.1475H92.4357V47.3829L64.6712 75.1475ZM89.7822 78.839L62.0176 106.604V78.839H89.7822ZM58.4738 44.877H30.5615L58.4738 72.7892V44.877Z" fill="#232323"/>
</g>
<defs>
<clipPath id="clip0">
<rect width="120" height="120" fill="white"/>
</clipPath>
</defs>
</svg>
