<svg xmlns="http://www.w3.org/2000/svg" width="295" height="72" viewBox="0 0 295 72"><defs><style>.cls-1{fill:#33f;}</style></defs><g id="Layer_1" data-name="Layer 1"><path class="cls-1" d="M144.1594,60.8174V24.2734l-15.4717,36.544h-7.2808L106.0754,24.4131V60.8174H97.8845V11.1826h11.2011l16.1021,37.8731,15.8916-37.8731H152.49V60.8174Z"/><path class="cls-1" d="M171.3854,41.2852l8.751-1.33c1.96-.28,2.52-1.26,2.52-2.45,0-2.87-1.96-5.1807-6.44-5.1807a6.5694,6.5694,0,0,0-7.001,6.1612l-7.42-1.6807c.63-5.8809,5.95-11.1309,14.3511-11.1309,10.5015,0,14.4917,5.95,14.4917,12.7412V55.3564a30.9445,30.9445,0,0,0,.42,5.461h-7.56a18.93,18.93,0,0,1-.35-4.3408c-1.61,2.5908-4.9707,5.3906-10.501,5.3906-7.1411,0-11.5513-4.9-11.5513-10.291C161.0944,45.4854,165.5749,42.125,171.3854,41.2852Zm11.271,5.3906v-1.54l-8.8906,1.33c-2.5205.42-4.5508,1.82-4.5508,4.62,0,2.3106,1.75,4.4112,4.9707,4.4112C178.736,55.4971,182.6564,53.3262,182.6564,46.6758Z"/><path class="cls-1" d="M200.4343,60.8174V26.7236h7.771v4.3409c1.96-3.501,6.23-5.32,10.081-5.32,4.48,0,8.4009,2.03,10.2207,6.0205,2.6607-4.48,6.6509-6.0205,11.0615-6.0205,6.1607,0,12.0411,3.92,12.0411,12.9512V60.8174h-7.8409V40.0254c0-3.99-2.03-7.001-6.5805-7.001-4.27,0-7.0708,3.36-7.0708,7.5606V60.8174h-7.981V40.0254c0-3.9209-1.96-7.001-6.5806-7.001-4.34,0-7.0708,3.2207-7.0708,7.5606V60.8174Z"/><path class="cls-1" d="M294.5173,43.7354c0,10.5009-7.4908,18.1318-17.7119,18.1318-10.1514,0-17.6421-7.6309-17.6421-18.1318,0-10.4307,7.4907-18.0616,17.6421-18.0616C287.0265,25.6738,294.5173,33.3047,294.5173,43.7354Zm-8.1909,0c0-7.07-4.4805-10.711-9.521-10.711-4.9707,0-9.521,3.6406-9.521,10.711s4.55,10.8515,9.521,10.8515C281.8459,54.5869,286.3264,50.876,286.3264,43.7354Z"/><path class="cls-1" d="M36.0481.4A35.586,35.586,0,0,0,.5149,37.5242,35.7034,35.7034,0,0,0,34.7805,71.5779q.6415.0219,1.28.0224A35.6,35.6,0,1,0,36.0481.4ZM63.447,37.4236A27.401,27.401,0,1,1,8.719,34.5759a27.401,27.401,0,1,1,54.728,2.8477Z"/><path class="cls-1" d="M36.0832,57.2717A21.1594,21.1594,0,0,0,57.2117,36.6375H14.9543A21.16,21.16,0,0,0,36.0832,57.2717Z"/></g></svg>