<svg width="150" height="32" viewBox="0 0 150 32" fill="none" xmlns="http://www.w3.org/2000/svg">
<g clip-path="url(#clip0)">
<path d="M93.8987 19.7399C93.3522 16.2992 90.112 13.9518 86.6617 14.4967C83.2114 15.0417 80.8574 18.2727 81.4039 21.7133C81.8037 24.23 83.6446 26.1618 85.9547 26.8046C87.3967 27.2058 88.3652 28.0126 88.8059 28.8363C89.1744 29.5249 89.3476 31.4065 89.3476 31.4065C83.4326 32.3407 77.8784 28.3164 76.9418 22.4181C76.0048 16.5198 80.0404 10.981 85.955 10.0468C91.8699 9.11263 97.4241 13.1368 98.3611 19.0351C98.451 19.6012 98.4952 20.1655 98.4958 20.7238V20.7266V31.5396C98.4958 31.5396 97.2104 31.61 96.2764 31.5084C95.1813 31.3893 93.9777 30.3291 93.9777 28.8363V20.7294V20.7285C93.9774 20.4037 93.9516 20.0735 93.8987 19.7399Z" fill="#F66F57"/>
<path d="M93.8987 19.7399C93.3522 16.2992 90.112 13.9518 86.6617 14.4967C83.2114 15.0417 80.8574 18.2727 81.4039 21.7133C81.8037 24.23 83.6446 26.1618 85.9547 26.8046C87.3967 27.2058 88.3652 28.0126 88.8059 28.8363C89.1744 29.5249 89.3476 31.4065 89.3476 31.4065C83.4326 32.3407 77.8784 28.3164 76.9418 22.4181C76.0048 16.5198 80.0404 10.981 85.955 10.0468C91.8699 9.11263 97.4241 13.1368 98.3611 19.0351C98.451 19.6012 98.4952 20.1655 98.4958 20.7238V20.7266V31.5396C98.4958 31.5396 97.2104 31.61 96.2764 31.5084C95.1813 31.3893 93.9777 30.3291 93.9777 28.8363V20.7294V20.7285C93.9774 20.4037 93.9516 20.0735 93.8987 19.7399Z" fill="url(#paint0_linear)"/>
<path d="M9.14816 14.6486C6.83801 15.2914 4.99716 17.2232 4.59745 19.7399C4.05096 23.1806 6.40497 26.4115 9.85527 26.9565C12.379 27.3551 14.7903 26.2062 16.1172 24.2139C16.9455 22.9702 17.9202 22.4092 18.6224 22.2056C19.5795 21.928 21.5544 22.4181 21.5544 22.4181C20.6176 28.3164 15.0633 32.3407 9.1485 31.4065C3.23372 30.4722 -0.801727 24.9334 0.135083 19.0351C1.07189 13.1368 6.62621 9.11263 12.541 10.0468C12.541 10.0468 12.4474 11.9812 11.8216 12.9173C11.394 13.5569 10.5902 14.2474 9.14816 14.6486Z" fill="#F66F57"/>
<path d="M9.14816 14.6486C6.83801 15.2914 4.99716 17.2232 4.59745 19.7399C4.05096 23.1806 6.40497 26.4115 9.85527 26.9565C12.379 27.3551 14.7903 26.2062 16.1172 24.2139C16.9455 22.9702 17.9202 22.4092 18.6224 22.2056C19.5795 21.928 21.5544 22.4181 21.5544 22.4181C20.6176 28.3164 15.0633 32.3407 9.1485 31.4065C3.23372 30.4722 -0.801727 24.9334 0.135083 19.0351C1.07189 13.1368 6.62621 9.11263 12.541 10.0468C12.541 10.0468 12.4474 11.9812 11.8216 12.9173C11.394 13.5569 10.5902 14.2474 9.14816 14.6486Z" fill="url(#paint1_linear)"/>
<path d="M42.3929 19.7399C41.8464 16.2992 38.6063 13.9518 35.156 14.4967C31.7057 15.0417 29.3517 18.2727 29.8982 21.7133C30.2979 24.23 32.1388 26.1618 34.4489 26.8046C35.8909 27.2058 36.8595 28.0126 37.3001 28.8363C37.6687 29.5249 37.8418 31.4065 37.8418 31.4065C31.9269 32.3407 26.3727 28.3164 25.4359 22.4181C24.499 16.5198 28.5345 10.981 34.4492 10.0468C40.3642 9.11263 45.9184 13.1368 46.8551 19.0351C46.9452 19.6012 46.9891 20.1655 46.99 20.7238V20.7266V31.5396C46.99 31.5396 45.7047 31.61 44.7707 31.5084C43.6756 31.3893 42.472 30.3291 42.472 28.8363V20.7294V20.7285C42.4714 20.4037 42.4458 20.0735 42.3929 19.7399Z" fill="#F66F57"/>
<path d="M42.3929 19.7399C41.8464 16.2992 38.6063 13.9518 35.156 14.4967C31.7057 15.0417 29.3517 18.2727 29.8982 21.7133C30.2979 24.23 32.1388 26.1618 34.4489 26.8046C35.8909 27.2058 36.8595 28.0126 37.3001 28.8363C37.6687 29.5249 37.8418 31.4065 37.8418 31.4065C31.9269 32.3407 26.3727 28.3164 25.4359 22.4181C24.499 16.5198 28.5345 10.981 34.4492 10.0468C40.3642 9.11263 45.9184 13.1368 46.8551 19.0351C46.9452 19.6012 46.9891 20.1655 46.99 20.7238V20.7266V31.5396C46.99 31.5396 45.7047 31.61 44.7707 31.5084C43.6756 31.3893 42.472 30.3291 42.472 28.8363V20.7294V20.7285C42.4714 20.4037 42.4458 20.0735 42.3929 19.7399Z" fill="url(#paint2_linear)"/>
<path d="M145.403 19.7399C144.856 16.2992 141.616 13.9518 138.166 14.4967C134.716 15.0417 132.362 18.2727 132.908 21.7133C133.308 24.23 135.148 26.1618 137.459 26.8046C138.901 27.2058 139.869 28.0126 140.31 28.8363C140.678 29.5249 140.851 31.4065 140.851 31.4065C134.937 32.3407 129.382 28.3164 128.446 22.4181C127.509 16.5198 131.544 10.981 137.459 10.0468C143.374 9.11263 148.928 13.1368 149.865 19.0351C149.955 19.6012 149.999 20.1655 150 20.7238V20.7266V31.5396C150 31.5396 148.714 31.61 147.78 31.5084C146.685 31.3893 145.482 30.3291 145.482 28.8363V20.7294V20.7285C145.481 20.4037 145.455 20.0735 145.403 19.7399Z" fill="#F66F57"/>
<path d="M145.403 19.7399C144.856 16.2992 141.616 13.9518 138.166 14.4967C134.716 15.0417 132.362 18.2727 132.908 21.7133C133.308 24.23 135.148 26.1618 137.459 26.8046C138.901 27.2058 139.869 28.0126 140.31 28.8363C140.678 29.5249 140.851 31.4065 140.851 31.4065C134.937 32.3407 129.382 28.3164 128.446 22.4181C127.509 16.5198 131.544 10.981 137.459 10.0468C143.374 9.11263 148.928 13.1368 149.865 19.0351C149.955 19.6012 149.999 20.1655 150 20.7238V20.7266V31.5396C150 31.5396 148.714 31.61 147.78 31.5084C146.685 31.3893 145.482 30.3291 145.482 28.8363V20.7294V20.7285C145.481 20.4037 145.455 20.0735 145.403 19.7399Z" fill="url(#paint3_linear)"/>
<path d="M56.0223 2.69883V20.7809C56.0229 21.1038 56.0485 21.432 56.1014 21.7638C56.6479 25.1856 59.8875 27.5201 63.3375 26.9782C66.4529 26.4888 68.6776 23.8183 68.6737 20.7852C68.6734 20.4619 68.6476 20.1333 68.5947 19.8011C68.1949 17.2982 66.3543 15.377 64.0445 14.7378C62.6025 14.3387 61.646 13.6134 61.153 12.6351C60.8518 12.0377 60.6522 10.1612 60.6522 10.1612C66.5662 9.23212 72.1198 13.2343 73.0565 19.1002C73.1464 19.6632 73.1906 20.2243 73.1912 20.7797C73.1978 25.9845 69.3904 30.5639 64.0442 31.4038C58.1301 32.3327 52.5762 28.3306 51.6396 22.4647C51.5497 21.9017 51.5055 21.3405 51.5049 20.7852V0.0104163C51.5049 0.0104163 53.3866 -0.038967 53.9154 0.0773182C54.9696 0.309117 56.0223 1.21406 56.0223 2.69883Z" fill="#F66F57"/>
<path d="M56.0223 2.69883V20.7809C56.0229 21.1038 56.0485 21.432 56.1014 21.7638C56.6479 25.1856 59.8875 27.5201 63.3375 26.9782C66.4529 26.4888 68.6776 23.8183 68.6737 20.7852C68.6734 20.4619 68.6476 20.1333 68.5947 19.8011C68.1949 17.2982 66.3543 15.377 64.0445 14.7378C62.6025 14.3387 61.646 13.6134 61.153 12.6351C60.8518 12.0377 60.6522 10.1612 60.6522 10.1612C66.5662 9.23212 72.1198 13.2343 73.0565 19.1002C73.1464 19.6632 73.1906 20.2243 73.1912 20.7797C73.1978 25.9845 69.3904 30.5639 64.0442 31.4038C58.1301 32.3327 52.5762 28.3306 51.6396 22.4647C51.5497 21.9017 51.5055 21.3405 51.5049 20.7852V0.0104163C51.5049 0.0104163 53.3866 -0.038967 53.9154 0.0773182C54.9696 0.309117 56.0223 1.21406 56.0223 2.69883Z" fill="url(#paint4_linear)"/>
<path d="M113.853 14.4448C110.36 14.4448 107.528 17.2858 107.528 20.7905V28.7981C107.528 30.3003 106.474 31.0752 105.71 31.3665C105.048 31.6193 103.01 31.5177 103.01 31.5177V20.7905C103.01 14.7825 107.864 9.91211 113.853 9.91211C119.842 9.91211 124.696 14.7825 124.696 20.7905V31.5177C124.696 31.5177 122.633 31.6265 121.986 31.3665C121.233 31.0644 120.178 30.3003 120.178 28.7981V20.7905C120.178 17.2858 117.346 14.4448 113.853 14.4448Z" fill="#F66F57"/>
<path d="M113.853 14.4448C110.36 14.4448 107.528 17.2858 107.528 20.7905V28.7981C107.528 30.3003 106.474 31.0752 105.71 31.3665C105.048 31.6193 103.01 31.5177 103.01 31.5177V20.7905C103.01 14.7825 107.864 9.91211 113.853 9.91211C119.842 9.91211 124.696 14.7825 124.696 20.7905V31.5177C124.696 31.5177 122.633 31.6265 121.986 31.3665C121.233 31.0644 120.178 30.3003 120.178 28.7981V20.7905C120.178 17.2858 117.346 14.4448 113.853 14.4448Z" fill="url(#paint5_linear)"/>
</g>
<defs>
<linearGradient id="paint0_linear" x1="87.6513" y1="9.91211" x2="87.6513" y2="31.5634" gradientUnits="userSpaceOnUse">
<stop stop-color="white" stop-opacity="0.18"/>
<stop offset="1" stop-color="white" stop-opacity="0"/>
</linearGradient>
<linearGradient id="paint1_linear" x1="10.7772" y1="9.91211" x2="10.7772" y2="31.5411" gradientUnits="userSpaceOnUse">
<stop stop-color="white" stop-opacity="0.18"/>
<stop offset="1" stop-color="white" stop-opacity="0"/>
</linearGradient>
<linearGradient id="paint2_linear" x1="36.1452" y1="9.91211" x2="36.1452" y2="31.5634" gradientUnits="userSpaceOnUse">
<stop stop-color="white" stop-opacity="0.18"/>
<stop offset="1" stop-color="white" stop-opacity="0"/>
</linearGradient>
<linearGradient id="paint3_linear" x1="139.155" y1="9.91211" x2="139.155" y2="31.5634" gradientUnits="userSpaceOnUse">
<stop stop-color="white" stop-opacity="0.18"/>
<stop offset="1" stop-color="white" stop-opacity="0"/>
</linearGradient>
<linearGradient id="paint4_linear" x1="62.3482" y1="9.31112" x2="62.3482" y2="31.5376" gradientUnits="userSpaceOnUse">
<stop stop-color="white" stop-opacity="0.18"/>
<stop offset="1" stop-color="white" stop-opacity="0"/>
</linearGradient>
<linearGradient id="paint5_linear" x1="113.853" y1="9.91211" x2="113.853" y2="31.5402" gradientUnits="userSpaceOnUse">
<stop stop-color="white" stop-opacity="0.18"/>
<stop offset="1" stop-color="white" stop-opacity="0"/>
</linearGradient>
<clipPath id="clip0">
<rect width="150" height="31.5631" fill="white"/>
</clipPath>
</defs>
</svg>
