<svg height="24" viewBox="0 0 191 24" width="191" 
  xmlns="http://www.w3.org/2000/svg">
  <g fill="#2b1755" fill-rule="evenodd">
    <path d="m55.2869318 23.2883523c1.3525095 0 2.565992-.2042496 3.6404475-.6127486 1.0744555-.4084991 2.001302-.964607 2.7805397-1.6683239.7792377-.7037168 1.4005682-1.5035511 1.8639915-2.3995028s.753492-1.8279475.870206-2.7959872l-4.5106534-.0205966c-.102983.5629735-.2866359 1.0641572-.5509588 1.5035511-.264323.439394-.5955848.811849-.9937855 1.1173651-.3982008.3055161-.8530422.5372277-1.3645242.6951349s-1.0658736.2368608-1.6631747.2368608c-1.0641572 0-2.0013021-.2608901-2.8114347-.7826704-.8101325-.5217803-1.440045-1.2941525-1.8897372-2.3171165s-.6745383-2.2862216-.6745383-3.7897727c0-1.462358.2231297-2.70673537.6693892-3.73313215.4462594-1.02639678 1.0744555-1.80906723 1.884588-2.34801136.8101326-.53894413 1.7610086-.80841619 2.8526279-.80841619.6041666 0 1.1654237.08581912 1.6837713.25745738.5183475.17163826.9766217.41879735 1.3748224.74147727.3982008.32267993.7243135.71229877.9783381 1.16885654.2540246.45655776.4222301.97662168.5046165 1.56019176h4.5106534c-.1441762-1.22206439-.4720052-2.30681818-.9834872-3.25426136-.511482-.94744319-1.1722893-1.74899385-1.9824219-2.40465199-.8101326-.65565815-1.7386956-1.15512548-2.7856889-1.49840199-1.0469934-.34327652-2.1815223-.51491477-3.4035867-.51491477-1.8536932 0-3.522017.42394649-5.0049716 1.27183948-1.4829545.847893-2.6569602 2.0785393-3.522017 3.69193893-.8650568 1.61339962-1.2975852 3.57007575-1.2975852 5.87002845 0 2.2930871.4273792 4.2463304 1.2821377 5.8597301.8547586 1.6133996 2.0218987 2.8457623 3.5014205 3.697088 1.4795218.8513258 3.1598603 1.2769887 5.0410156 1.2769887zm16.4209936-.2883523v-8.9492188c0-.6453598.1458925-1.2151988.4376775-1.709517.2917851-.4943182.6899858-.8805043 1.1946023-1.1585582.5046165-.278054 1.0796047-.417081 1.7249645-.417081.3020833 0 .6350616.0240294.9989347.0720881s.6487926.1029829.8547585.1647727v-3.89275569c-.1922349-.04805871-.4153646-.08581913-.6693892-.11328125s-.4908854-.04119318-.7105824-.04119318c-.8856534 0-1.6683239.25230824-2.3480114.75692472s-1.1637074 1.24781013-1.4520596 2.22958096h-.1647728v-2.75994318h-4.253196v15.81818182zm13.6981101.3089489c1.3044508 0 2.4561435-.2008168 3.4550782-.6024503.9989346-.4016335 1.8159327-.964607 2.4509943-1.6889205.6350615-.7243134 1.0555753-1.5739228 1.2615412-2.5488281l-4.0575284-.2677557c-.1510417.3982008-.3707387.7346118-.6590909 1.009233-.2883523.2746212-.6350616.4805871-1.0401279.6178977s-.8513257.2059659-1.3387784.2059659c-.7346117 0-1.3696733-.1544744-1.9051846-.4634233-.5355114-.3089488-.9491596-.7483428-1.2409446-1.3181818-.2917851-.569839-.4376776-1.2460938-.4376776-2.0287642l-.0003168-.0097216 10.7723338-.0005767v-1.2049006c0-1.3456439-.188802-2.521366-.5664062-3.5271662s-.9045336-1.84167847-1.5807884-2.50763491c-.6762547-.66595644-1.4657907-1.16542377-2.3686079-1.49840199-.9028173-.33297822-1.8760062-.49946733-2.9195668-.49946733-1.5516098 0-2.9024029.34327652-4.0523792 1.02982955-1.1499764.68655303-2.0407789 1.64429451-2.6724077 2.87322438-.6316288 1.22893-.9474432 2.6569603-.9474432 4.284091 0 1.6683238.3158144 3.1118016.9474432 4.3304332s1.5327296 2.1592093 2.7033025 2.821733c1.170573.6625236 2.5694248.9937855 4.1965554.9937855zm-3.5025468-9.9017307c.036795-.5342777.1813466-1.0251899.4336548-1.4727367.2883523-.511482.6882694-.919981 1.1997514-1.2254971s1.1002013-.4582742 1.7661577-.4582742c.6384943 0 1.1997514.139027 1.6837713.417081s.8633404.6608073 1.1379616 1.1482599c.2746213.4874527.4119319 1.0469934.4119319 1.6786222l-6.6367174.0003267zm17.9009662 9.8914324c.7826701 0 1.4726561-.1046994 2.0699571-.314098.597301-.2093987 1.108783-.5011838 1.534446-.8753552s.765507-.8084161 1.019532-1.3027343h.123579v2.1935369h4.160512v-10.6690341c0-.9405776-.181937-1.7489938-.54581-2.42524857-.363873-.67625474-.859908-1.23064631-1.488104-1.66317472s-1.345644-.75177556-2.152344-.95774147c-.806699-.20596591-1.649443-.30894887-2.528231-.30894887-1.263258 0-2.3737572.19051847-3.3314987.5715554s-1.7386956.92341383-2.3428622 1.62713068c-.6041667.70371686-1.009233 1.53616245-1.2151989 2.49733665l4.0575284.3295455c.1510417-.5217803.4599906-.9560251.9268464-1.3027344.466856-.3467093 1.095052-.5200639 1.884588-.5200639.748343 0 1.326764.1785037 1.735263.5355113s.612749.8616241.612749 1.5138495v.0617897c0 .336411-.127013.5904356-.381037.7620739-.254025.1716382-.662524.3003669-1.225497.3861861-.562974.0858191-1.304451.1767874-2.224432.2729048-.7826707.0755208-1.5292971.2059659-2.2398795.3913352s-1.3439276.4599906-1.9000355.8238637c-.556108.3638731-.9955019.8444602-1.3181819 1.4417613-.3226799.5973012-.4840198 1.3353457-.4840198 2.2141335 0 1.0435607.2282788 1.9137666.6848366 2.6106179.4565578.6968514 1.0796046 1.2220644 1.8691406 1.5756393.789536.3535748 1.6889205.5303622 2.6981534.5303622zm1.2563921-3.0276989c-.672822 0-1.2272136-.1561908-1.6631747-.4685724-.4359612-.3123817-.6539418-.767223-.6539418-1.3645242 0-.4119318.1064157-.7569247.3192472-1.0349787.2128314-.278054.511482-.4994673.8959517-.66424.3844696-.1647728.8341616-.2849195 1.3490766-.3604404.240294-.0343276.508049-.0738044.803267-.1184304.295218-.0446259.590436-.0961174.885654-.1544744.295217-.058357.561257-.1235796.798117-.1956676.236861-.0720881.423947-.1527581.561258-.24201v1.6786222c0 .556108-.140744 1.0538589-.422231 1.4932528-.281486.439394-.669389.7878196-1.163707 1.045277s-1.064157.3861861-1.709517.3861861zm16.794349 2.9523076.347535-.0069951c.569839-.0205966 1.053859-.0772372 1.45206-.1699219.398201-.0926846.70715-.1733546.926847-.2420099l-.689986-3.2645597c-.109849.0205966-.267756.0497751-.473722.0875355-.205966.0377605-.411932.0566407-.617898.0566407-.295217 0-.554391-.044626-.777521-.1338779s-.396484-.2454427-.520064-.4685724c-.123579-.2231298-.185369-.5372278-.185369-.9422941l-.000078-7.6612045 2.976285-.0007273v-3.29545452l-2.976285.00018182.000078-3.78995455h-4.387074l-.000004 3.78995455-2.162638-.00018182v3.29545452l2.162638.0007273.000004 8.2379091c-.006179.9330256.168377 1.7214631.523668 2.3653125l.125125.2092614c.439394.6796875 1.055575 1.1808712 1.848544 1.5035511.792968.3226799 1.718099.4634233 2.77539.4222301zm12.031313.0856896c1.599669 0 2.981356-.3415602 4.145064-1.0246804 1.163707-.6831203 2.061375-1.637429 2.693004-2.8629262.631629-1.2254971.947443-2.6483783.947443-4.2686434 0-1.6339962-.315814-3.0637429-.947443-4.2892401-.631629-1.22549715-1.529297-2.17980586-2.693004-2.86292613-1.163708-.68312026-2.545395-1.0246804-4.145064-1.0246804s-2.981357.34156014-4.145064 1.0246804c-1.163707.68312027-2.061375 1.63742898-2.693004 2.86292613-.631629 1.2254972-.947443 2.6552439-.947443 4.2892401 0 1.6202651.315814 3.0431463.947443 4.2686434.631629 1.2254972 1.529297 2.1798059 2.693004 2.8629262 1.163707.6831202 2.545395 1.0246804 4.145064 1.0246804zm.020597-3.3984375c-.734612 0-1.350794-.2076823-1.848545-.6230469-.49775-.4153646-.871922-.9834872-1.122514-1.7043679s-.375887-1.5413116-.375887-2.4612926c0-.9199811.125295-1.740412.375887-2.4612926.250592-.7208807.624764-1.2907197 1.122514-1.7095171.497751-.4187973 1.113933-.628196 1.848545-.628196.727746 0 1.335345.2093987 1.822798.628196.487452.4187974.856475.9886364 1.107067 1.7095171.250591.7208806.375887 1.5413115.375887 2.4612926 0 .919981-.125296 1.7404119-.375887 2.4612926-.250592.7208807-.619615 1.2890033-1.107067 1.7043679-.487453.4153646-1.095052.6230469-1.822798.6230469zm14.777394 3.0894886v-8.9492188c0-.6453598.145893-1.2151988.437678-1.709517s.689986-.8805043 1.194602-1.1585582c.504616-.278054 1.079605-.417081 1.724965-.417081.302083 0 .635061.0240294.998934.0720881s.648793.1029829.854759.1647727v-3.89275569c-.192235-.04805871-.415365-.08581913-.66939-.11328125-.254024-.02746212-.490885-.04119318-.710582-.04119318-.885653 0-1.668324.25230824-2.348011.75692472-.679688.50461648-1.163708 1.24781013-1.45206 2.22958096h-.164773v-2.75994318h-4.253196v15.81818182zm11.772329 0v-5.993608l2.193537-2.6775568 5.777344 8.6711648h5.334517l-7.919389-11.6473722 7.826704-9.44353689h-5.344815l-7.589844 9.29936079h-.278054v-9.29936079h-4.459162v21.09090909zm18.418848-17.85724432c.652225 0 1.21005-.21798059 1.673473-.65394176s.695135-.95945786.695135-1.57049006c0-.60416666-.231712-1.12423058-.695135-1.56019176-.463423-.43596117-1.02468-.65394176-1.683771-.65394176-.64536 0-1.201468.21798059-1.668324.65394176-.466856.43596118-.700284.9560251-.700284 1.56019176 0 .6110322.233428 1.13452889.700284 1.57049006s1.026397.65394176 1.678622.65394176zm2.17294 17.85724432v-15.81818182h-4.387074v15.81818182zm9.243617.2232593.347535-.0069951c.569839-.0205966 1.053859-.0772372 1.45206-.1699219.398201-.0926846.707149-.1733546.926846-.2420099l-.689985-3.2645597c-.109849.0205966-.267756.0497751-.473722.0875355-.205966.0377605-.411932.0566407-.617898.0566407-.295217 0-.554391-.044626-.777521-.1338779s-.396484-.2454427-.520064-.4685724c-.123579-.2231298-.185369-.5372278-.185369-.9422941l-.000116-7.6612045 2.976323-.0007273v-3.29545452l-2.976323.00018182.000116-3.78995455h-4.387074l-.000042 3.78995455-2.1626-.00018182v3.29545452l2.1626.0007273.000042 8.2379091c-.006179.9330256.168377 1.7214631.523668 2.3653125l.125125.2092614c.439393.6796875 1.055575 1.1808712 1.848544 1.5035511.792968.3226799 1.718099.4634233 2.77539.4222301z" fill-rule="nonzero"/>
    <path d="m16.9936602 15.3337786c.6516719-.3588035 1.1880989-.8952305 1.5469024-1.5469024 1.0466707-1.9010013.3540989-4.29056149-1.5469024-5.33723217l-6.9365173-3.8191026v-.26256143c0-1.86008399 1.507896-3.36798 3.36798-3.36798h15.2068971c1.860084 0 3.36798 1.50789601 3.36798 3.36798v15.0472886c0 1.860084-1.507896 3.36798-3.36798 3.36798h-15.2068971c-1.860084 0-3.36798-1.507896-3.36798-3.36798v-.2627272zm-6.9366602 3.6722214-6.72069975 3.7377811c-1.08383318.6025317-2.45090206.2123598-3.05343381-.8714733-.18551061-.3336962-.28286644-.7091854-.28286644-1.0909803v-16.82510845c0-1.55007 1.25658001-2.80665 2.80665-2.80665.4772436 0 .94660508.12169478 1.36372531.35358304l5.88662469 3.27284791z"/>
  </g>
</svg>