<svg xmlns="http://www.w3.org/2000/svg" xmlns:xlink="http://www.w3.org/1999/xlink" width="160" height="30" viewBox="0 0 160 30">
    <defs>
        <path id="a" d="M0 .214h28.343v29.392H0z"/>
    </defs>
    <g fill="none" fill-rule="evenodd">
        <g>
            <mask id="b" fill="#fff">
                <use xlink:href="#a"/>
            </mask>
            <path fill="#AEF5FF" d="M3.89.376l22.475 7.783c2.149.73 2.667 3.54.958 5.025L9.379 28.88c-1.709 1.484-4.376.573-4.816-1.666L.058 3.734C-.382 1.494 1.767-.353 3.89.376" mask="url(#b)"/>
        </g>
        <path fill="#6CDCEF" d="M28.34 10.565a2.895 2.895 0 0 0-1.965-2.548L23.53 7.05c-1.604-.535-4.139.764-6.053 2.852-.724.815-1.396 1.885-2.069 3.083-4.81-.968-9.984-4.356-14.148-3.26l3.026 15.359.233 1.12.077.433c.052.28.156.535.259.764.828 1.605 3.052 2.14 4.552.866l15.546-13.296 2.38-2.037a2.823 2.823 0 0 0 1.008-2.37"/>
        <path fill="#25CAE5" d="M28.34 10.468a2.912 2.912 0 0 0-1.968-2.565l-2.85-.974c2.28.77.13 4.846-3.653 5.949-1.425.41-2.954.359-4.482.026-1.53 2.666-3.213 5.897-6.193 7.744-3.264 2.05-5.414 2.025-5.414 2.025l.466 2.384.31 1.564c.052.283.156.539.26.77.829 1.615 3.057 2.154 4.56.872l15.57-13.385 2.385-2.051c.751-.616 1.062-1.487 1.01-2.36"/>
        <path fill="#292A2B" d="M55.524 8.214c-.26 0-.493.077-.727.203-.233.153-.363.331-.467.56L51.94 16.65l-2.363-7.47c-.104-.28-.26-.534-.52-.711-.259-.178-.519-.28-.83-.28a1.36 1.36 0 0 0-.831.28 1.471 1.471 0 0 0-.52.71l-2.362 7.471-2.39-7.673a1.06 1.06 0 0 0-.44-.56 1.42 1.42 0 0 0-.728-.203c-.363 0-.649.127-.908.356a1.214 1.214 0 0 0-.364.89c0 .152.026.304.078.457l3.194 9.148c.104.305.311.584.597.788a1.6 1.6 0 0 0 .96.304 1.6 1.6 0 0 0 .961-.304 1.57 1.57 0 0 0 .598-.814l2.129-6.53 2.13 6.53c.13.33.337.585.596.788.286.203.598.305.961.305a1.6 1.6 0 0 0 .961-.305c.285-.203.467-.483.571-.788l3.194-9.148a1.41 1.41 0 0 0 .078-.457c0-.356-.13-.635-.364-.89-.155-.203-.441-.33-.805-.33M64.976 14.713v2.683a12.21 12.21 0 0 1-3.077.42c-.75 0-1.3-.157-1.6-.42-.3-.29-.45-.657-.45-1.131 0-1.026 1.025-1.526 3.026-1.526l2.1-.026zm.35-6.47c-.726-.447-1.6-.684-2.651-.684-1.3 0-2.601.29-3.852.842-.475.21-.725.578-.725 1.105 0 .315.1.578.3.789.2.21.45.315.75.315.1 0 .2-.026.35-.052.5-.185.976-.316 1.376-.395.4-.079.875-.132 1.4-.132.926 0 1.601.21 2.026.605.4.369.6 1 .626 1.894H62.55c-1.676 0-2.976.342-3.852 1.052-.9.71-1.375 1.684-1.375 2.893 0 .737.175 1.395.525 1.947.35.552.8 1 1.4 1.288.576.29 1.201.447 1.876.447 1.701 0 2.551-.13 3.552-.262.6-.08 2.05-.316 2.35-.658.25-.237.376-.552.376-.92V12.32c0-.816-.176-1.605-.526-2.315-.275-.736-.825-1.315-1.55-1.762zM79.35 8.189c-.235 0-.47.076-.706.203-.209.127-.365.305-.47.534l-3.213 7.928-3.214-7.928a1.268 1.268 0 0 0-.47-.508 1.34 1.34 0 0 0-.706-.204c-.365 0-.653.127-.914.381-.235.255-.366.534-.366.89 0 .178.053.356.13.559l3.946 9.148c.13.28.313.508.575.686.26.178.575.28.888.28h.235c.314 0 .627-.102.888-.28.262-.178.47-.407.601-.686l3.945-9.148c.079-.203.13-.381.13-.56 0-.355-.13-.634-.365-.889-.235-.28-.549-.406-.914-.406M84.508 12.646c.079-.58.236-1.054.498-1.45.314-.448.68-.79 1.152-1.001a3.09 3.09 0 0 1 2.802 0c.445.21.838.553 1.152 1.027.262.396.445.897.498 1.45l-6.102-.026zm8.354 1.845c.235-.237.366-.554.366-.923 0-1.08-.21-2.082-.654-2.978a5.336 5.336 0 0 0-1.964-2.214c-.865-.553-1.886-.817-3.038-.817-1.23 0-2.304.29-3.169.896-.864.58-1.492 1.37-1.911 2.32a7.99 7.99 0 0 0-.602 3.083c0 1.977.55 3.532 1.623 4.64 1.074 1.106 2.593 1.66 4.504 1.66.917 0 1.702-.08 2.305-.264a8.854 8.854 0 0 0 1.806-.764c.472-.29.707-.633.707-1.08a1.167 1.167 0 0 0-1.702-1.028c-.445.21-.89.394-1.335.5a7.02 7.02 0 0 1-1.597.184c-1.127 0-1.99-.29-2.62-.817-.549-.5-.89-1.16-1.047-2.03h7.385c.366 0 .68-.13.943-.368zM111.765 7.947c.24.243.361.544.361.905 0 .188-.06.423-.18.705l-4.224 9.684c-.106.266-.26.478-.464.634a1.223 1.223 0 0 1-.688.259l-.204.023c-.256 0-.493-.082-.711-.246a1.607 1.607 0 0 1-.509-.67l-4.2-9.684a1.926 1.926 0 0 1-.159-.752c0-.314.128-.6.384-.858.256-.259.572-.388.949-.388a1.44 1.44 0 0 1 1.333.893l3.117 7.428 3.094-7.404c.12-.298.286-.525.497-.682.21-.156.444-.227.7-.211.362 0 .663.121.904.364M117.295 19.755c-.283.269-.641.402-1.074.402-.434 0-.792-.133-1.075-.402a1.32 1.32 0 0 1-.425-1V9.264c0-.398.141-.731.425-1 .283-.267.641-.402 1.075-.402.433 0 .79.135 1.074.402.284.269.425.602.425 1v9.493c0 .398-.141.732-.425 1m-2.3-13.978c-.233-.178-.35-.495-.35-.95v-.462c0-.454.126-.77.376-.949.25-.178.65-.267 1.2-.267.583 0 .99.089 1.224.267.234.179.35.495.35.95v.462c0 .47-.12.79-.362.961-.242.17-.654.256-1.237.256-.567 0-.967-.09-1.2-.268M128.083 17.084c.626-.745.939-1.682.939-2.81 0-1.13-.313-2.07-.939-2.823-.625-.752-1.434-1.129-2.425-1.129-.977 0-1.778.377-2.403 1.13-.626.752-.938 1.692-.938 2.821 0 1.13.309 2.066.927 2.81.617.745 1.422 1.118 2.414 1.118.991 0 1.8-.373 2.425-1.117m3.182-13.534c.259.266.389.61.389 1.034v14.534c0 .408-.13.749-.39 1.023-.26.274-.587.411-.983.411-.398 0-.721-.133-.973-.4-.252-.266-.386-.603-.4-1.01-.382.454-.897.842-1.545 1.164a4.558 4.558 0 0 1-2.048.481 5.125 5.125 0 0 1-2.86-.834c-.856-.557-1.53-1.33-2.026-2.317-.496-.987-.744-2.108-.744-3.363 0-1.254.244-2.379.732-3.375.488-.995 1.156-1.771 2.003-2.328a4.998 4.998 0 0 1 2.803-.834c.732 0 1.419.137 2.06.41.64.276 1.181.624 1.624 1.047V4.584c0-.407.13-.748.39-1.023.259-.274.586-.411.984-.411.396 0 .724.133.984.4M136.36 12.53h6.148v-.159c-.063-.635-.384-1.18-.962-1.634a3.109 3.109 0 0 0-1.971-.681c-1.816 0-2.887.825-3.216 2.474m8.707 1.93c-.282.227-.61.34-.986.34h-7.744c.188.893.618 1.593 1.29 2.1.673.507 1.432.76 2.277.76.642 0 1.142-.056 1.502-.17.36-.113.645-.234.857-.363.21-.129.355-.216.434-.261.281-.136.547-.204.798-.204.328 0 .61.113.845.34.234.227.352.492.352.795 0 .408-.22.78-.658 1.112-.438.348-1.025.643-1.76.885a7.09 7.09 0 0 1-2.23.363c-1.313 0-2.46-.264-3.437-.794a5.641 5.641 0 0 1-2.265-2.19c-.532-.931-.798-1.98-.798-3.144 0-1.302.282-2.444.845-3.429.563-.983 1.306-1.736 2.23-2.258a5.912 5.912 0 0 1 2.957-.783 5.62 5.62 0 0 1 2.921.817 6.215 6.215 0 0 1 2.195 2.202c.547.923.82 1.922.82 2.996a1.151 1.151 0 0 1-.445.886M156.746 11.883a3.452 3.452 0 0 0-1.274-1.35 3.39 3.39 0 0 0-1.771-.477c-.649 0-1.239.159-1.772.477a3.455 3.455 0 0 0-1.274 1.35c-.316.583-.474 1.245-.474 1.987 0 .741.158 1.4.474 1.975a3.473 3.473 0 0 0 1.274 1.339 3.391 3.391 0 0 0 1.772.477 3.39 3.39 0 0 0 1.771-.477 3.47 3.47 0 0 0 1.274-1.34c.317-.575.475-1.233.475-1.974 0-.742-.158-1.404-.475-1.987m2.42 5.244a5.837 5.837 0 0 1-2.28 2.236c-.966.53-2.027.794-3.185.794-1.174 0-2.239-.264-3.196-.794a5.853 5.853 0 0 1-2.27-2.236c-.555-.96-.833-2.047-.833-3.257s.278-2.297.833-3.258a5.936 5.936 0 0 1 2.27-2.247c.957-.537 2.022-.806 3.196-.806 1.158 0 2.22.269 3.184.806a5.919 5.919 0 0 1 2.281 2.247c.556.961.834 2.047.834 3.258 0 1.21-.278 2.296-.834 3.257M97.358 19.866c-.234-.194-.35-.537-.35-1.032v-.503c0-.494.125-.838.375-1.032.25-.194.65-.291 1.2-.291.583 0 .991.097 1.225.291.233.194.35.538.35 1.032v.503c0 .512-.121.86-.363 1.046-.242.185-.654.277-1.237.277-.567 0-.967-.096-1.2-.29"/>
    </g>
</svg>
