<svg width="726" height="270" viewBox="0 0 726 270" fill="none" xmlns="http://www.w3.org/2000/svg">
<path fill-rule="evenodd" clip-rule="evenodd" d="M117.221 87.8244C116.83 87.4328 116.831 86.7982 117.224 86.4083L131.374 72.3576C131.753 71.9812 132.361 71.9693 132.755 72.3305L148.863 87.1148L180.865 55.68C181.25 55.3012 181.867 55.2974 182.257 55.6715L197.564 70.3435C197.972 70.7341 197.975 71.3844 197.572 71.7796L149.571 118.828C149.179 119.212 148.551 119.208 148.163 118.82L117.221 87.8244ZM166.212 136.151C165.81 135.759 165.809 135.114 166.209 134.721L197.615 103.855C198.001 103.476 198.619 103.472 199.01 103.847L214.347 118.598C214.751 118.986 214.757 119.631 214.36 120.027L198.309 136.036L230.272 166.624C230.673 167.008 230.685 167.645 230.298 168.043L215.78 182.991C215.395 183.388 214.761 183.397 214.365 183.011L166.212 136.151ZM184.779 182.176C185.17 182.567 185.169 183.202 184.776 183.592L170.626 197.642C170.247 198.019 169.639 198.031 169.245 197.669L153.137 182.885L121.135 214.32C120.75 214.699 120.133 214.703 119.743 214.329L104.436 199.657C104.028 199.266 104.025 198.616 104.428 198.22L152.429 151.172C152.821 150.788 153.449 150.792 153.837 151.18L184.779 182.176ZM135.788 133.849C136.19 134.241 136.191 134.886 135.791 135.279L104.385 166.145C103.999 166.524 103.381 166.528 102.99 166.153L87.6532 151.402C87.2493 151.014 87.2434 150.369 87.6402 149.974L103.691 133.964L71.7278 103.376C71.3267 102.992 71.3151 102.355 71.7019 101.957L86.2199 87.0087C86.605 86.6122 87.2386 86.6033 87.6347 86.9887L135.788 133.849Z" fill="#090E15"/>
<path d="M321.739 185.336C309.267 185.336 301.225 182.565 293.529 177.024C286.642 171.978 282.01 165.401 279.634 157.291C279.273 156.058 280.226 154.861 281.512 154.861H302.418C303.288 154.861 304.05 155.427 304.376 156.233C305.578 159.203 307.684 162.354 310.668 164.165C314.118 166.135 316.692 167.5 322 167.5C334.247 167.5 338.6 162.556 338.6 155.784C338.6 152.459 336.477 149.935 332.23 148.211C328.117 146.488 326 145.5 320.147 144.148C314.309 143.04 310.447 141.685 304.476 140.085C298.505 138.361 293.397 135.221 289.151 130.665C285.037 125.986 282.981 119.891 282.981 112.38C282.981 104.13 286.497 97.2961 293.529 91.8782C300.562 86.4604 308.271 83.7515 320.744 83.7515C331.174 83.7515 341.059 86.3373 348.357 91.5089C355.004 96.2195 358.675 100.777 360.881 108.159C361.232 109.333 360.387 110.505 359.166 110.61L340.046 112.256C339.188 112.33 338.389 111.84 337.991 111.076C335.169 105.661 329.975 102.197 320.744 102.197C310.129 102.197 306.865 106.223 306.865 112.38C306.865 115.212 308.324 117.551 311.243 119.398C314.295 121.122 316.034 122.354 320.545 123.092C324.969 124.35 327.857 124.755 333.031 126.232C338.339 127.587 343.248 129.187 347.76 131.034C352.271 132.881 355.987 135.96 358.906 140.269C361.958 144.456 363.483 149.627 363.483 155.784C363.483 164.526 359.768 171.668 352.338 177.209C344.907 182.627 334.027 185.336 321.739 185.336Z" fill="black"/>
<path d="M420.927 185.336C406.402 185.336 395.062 180.903 385.907 172.038C376.884 163.049 372.373 150.551 372.373 134.544C372.373 118.66 376.884 106.223 385.907 97.2345C394.93 88.2458 406.004 83.7515 420.131 83.7515C435.523 83.7515 444.664 88.369 453.554 97.6039C462.444 106.839 466.889 118.229 466.889 131.773L466.893 139.007C466.894 140.112 465.998 141.008 464.893 141.008H396.257C396.787 148.519 399.441 154.553 404.218 159.109C408.995 163.665 414.297 165.942 421.126 165.942C429.699 165.942 434.002 162.507 439.415 155.636C439.798 155.15 440.383 154.861 441.002 154.861H462.068C463.449 154.861 464.413 156.227 463.875 157.499C460.579 165.293 455.348 171.74 448.18 176.84C440.351 182.504 433.267 185.336 420.927 185.336ZM396.257 124.385H443.005C441.944 118.105 439.511 112.44 435 108.5C430.489 104.56 426.296 103.145 419.131 103.145C413.364 103.145 409.725 105.053 405.213 108.871C400.834 112.565 397.849 117.736 396.257 124.385Z" fill="black"/>
<path d="M481.604 185.385C480.5 185.385 479.604 184.489 479.604 183.385V57C479.604 55.8954 480.5 55 481.604 55H500.493C501.598 55 502.493 55.8954 502.493 57V183.385C502.493 184.489 501.598 185.385 500.493 185.385H481.604Z" fill="black"/>
<path d="M519.098 185.385C517.993 185.385 517.098 184.489 517.098 183.385V57C517.098 55.8954 517.993 55 519.098 55H537.986C539.091 55 539.986 55.8954 539.986 57V183.385C539.986 184.489 539.091 185.385 537.986 185.385H519.098Z" fill="black"/>
<path d="M552.672 185.385C551.051 185.385 550.103 183.557 551.038 182.232L583.645 136L552.781 91.1335C551.868 89.8065 552.818 88 554.429 88H575.47C576.116 88 576.723 88.3121 577.098 88.838L598.572 118.921L619.69 88.8506C620.064 88.3174 620.675 88 621.327 88H642.382C643.988 88 644.939 89.7974 644.035 91.1251L613.5 136L646.107 182.232C647.041 183.557 646.094 185.385 644.472 185.385H623.513C622.852 185.385 622.233 185.058 621.861 184.512L598.572 150.369L575.284 184.512C574.911 185.058 574.293 185.385 573.632 185.385H552.672Z" fill="black"/>
</svg>
